<svg width="1980" height="1080" viewBox="0 0 1273 1044" fill="none" xmlns="http://www.w3.org/2000/svg">
<g filter="url(#filter0_f_0_1)">
<path d="M683 317C427 421 -133 401 19 568.999C-253 749 218.632 695.432 611 745C1003.37 794.568 1051 657 1319 657C1553.22 657 1697.54 574.91 1227 537.866C795 503.855 983.152 195.062 683 317Z" fill="url(#paint0_linear_0_1)"/>
<path d="M683 317C427 421 -133 401 19 568.999C-253 749 218.632 695.432 611 745C1003.37 794.568 1051 657 1319 657C1553.22 657 1697.54 574.91 1227 537.866C795 503.855 983.152 195.062 683 317Z" stroke="black" stroke-width="0.479289"/>
</g>
<line x1="3.42857" y1="-3.42857" x2="428.429" y2="-3.42857" transform="matrix(-0.780552 -0.625091 -0.625091 0.780552 617.268 631.886)" stroke="#FE5D26" stroke-opacity="0.3" stroke-width="6.85714" stroke-linecap="round" stroke-dasharray="0.23 40"/>
<line x1="3.42857" y1="-3.42857" x2="428.429" y2="-3.42857" transform="matrix(-0.780552 -0.625091 -0.625091 0.780552 668.995 567.294)" stroke="#FE5D26" stroke-opacity="0.3" stroke-width="6.85714" stroke-linecap="round" stroke-dasharray="0.23 40"/>
<line x1="3.42857" y1="-3.42857" x2="428.429" y2="-3.42857" transform="matrix(-0.780552 -0.625091 -0.625091 0.780552 513.814 761.069)" stroke="#FE5D26" stroke-opacity="0.3" stroke-width="6.85714" stroke-linecap="round" stroke-dasharray="0.23 40"/>
<line x1="3.42857" y1="-3.42857" x2="428.429" y2="-3.42857" transform="matrix(-0.780552 -0.625091 -0.625091 0.780552 462.087 825.661)" stroke="#FE5D26" stroke-opacity="0.3" stroke-width="6.85714" stroke-linecap="round" stroke-dasharray="0.23 40"/>
<line x1="3.42857" y1="-3.42857" x2="428.429" y2="-3.42857" transform="matrix(-0.780552 -0.625091 -0.625091 0.780552 565.542 696.478)" stroke="#FE5D26" stroke-opacity="0.3" stroke-width="6.85714" stroke-linecap="round" stroke-dasharray="0.23 40"/>
<line x1="3.42857" y1="-3.42857" x2="428.429" y2="-3.42857" transform="matrix(-0.780552 -0.625091 -0.625091 0.780552 630.337 595.542)" stroke="#FE5D26" stroke-opacity="0.3" stroke-width="6.85714" stroke-linecap="round" stroke-dasharray="0.23 40"/>
<line x1="3.42857" y1="-3.42857" x2="428.429" y2="-3.42857" transform="matrix(-0.780552 -0.625091 -0.625091 0.780552 682.064 530.95)" stroke="#FE5D26" stroke-opacity="0.3" stroke-width="6.85714" stroke-linecap="round" stroke-dasharray="0.23 40"/>
<line x1="3.42857" y1="-3.42857" x2="428.429" y2="-3.42857" transform="matrix(-0.780552 -0.625091 -0.625091 0.780552 526.883 724.725)" stroke="#FE5D26" stroke-opacity="0.3" stroke-width="6.85714" stroke-linecap="round" stroke-dasharray="0.23 40"/>
<line x1="3.42857" y1="-3.42857" x2="428.429" y2="-3.42857" transform="matrix(-0.780552 -0.625091 -0.625091 0.780552 475.156 789.317)" stroke="#FE5D26" stroke-opacity="0.3" stroke-width="6.85714" stroke-linecap="round" stroke-dasharray="0.23 40"/>
<line x1="3.42857" y1="-3.42857" x2="428.429" y2="-3.42857" transform="matrix(-0.780552 -0.625091 -0.625091 0.780552 578.611 660.134)" stroke="#FE5D26" stroke-opacity="0.3" stroke-width="6.85714" stroke-linecap="round" stroke-dasharray="0.23 40"/>
<line x1="663.329" y1="627.067" x2="995.064" y2="361.403" stroke="#FE5D26" stroke-opacity="0.3" stroke-width="6.85714" stroke-linecap="round" stroke-dasharray="0.23 40"/>
<line x1="611.602" y1="562.475" x2="943.337" y2="296.811" stroke="#FE5D26" stroke-opacity="0.3" stroke-width="6.85714" stroke-linecap="round" stroke-dasharray="0.23 40"/>
<line x1="766.783" y1="756.25" x2="1098.52" y2="490.586" stroke="#FE5D26" stroke-opacity="0.3" stroke-width="6.85714" stroke-linecap="round" stroke-dasharray="0.23 40"/>
<line x1="818.51" y1="820.841" x2="1150.24" y2="555.177" stroke="#FE5D26" stroke-opacity="0.3" stroke-width="6.85714" stroke-linecap="round" stroke-dasharray="0.23 40"/>
<line x1="715.056" y1="691.658" x2="1046.79" y2="425.994" stroke="#FE5D26" stroke-opacity="0.3" stroke-width="6.85714" stroke-linecap="round" stroke-dasharray="0.23 40"/>
<line x1="650.26" y1="590.723" x2="981.995" y2="325.059" stroke="#FE5D26" stroke-opacity="0.3" stroke-width="6.85714" stroke-linecap="round" stroke-dasharray="0.23 40"/>
<line x1="598.533" y1="526.131" x2="930.268" y2="260.467" stroke="#FE5D26" stroke-opacity="0.3" stroke-width="6.85714" stroke-linecap="round" stroke-dasharray="0.23 40"/>
<line x1="753.714" y1="719.906" x2="1085.45" y2="454.242" stroke="#FE5D26" stroke-opacity="0.3" stroke-width="6.85714" stroke-linecap="round" stroke-dasharray="0.23 40"/>
<line x1="805.441" y1="784.498" x2="1137.18" y2="518.834" stroke="#FE5D26" stroke-opacity="0.3" stroke-width="6.85714" stroke-linecap="round" stroke-dasharray="0.23 40"/>
<line x1="701.987" y1="655.314" x2="1033.72" y2="389.651" stroke="#FE5D26" stroke-opacity="0.3" stroke-width="6.85714" stroke-linecap="round" stroke-dasharray="0.23 40"/>
<defs>
<filter id="filter0_f_0_1" x="-349.433" y="0.83606" width="2174.89" height="1042.75" filterUnits="userSpaceOnUse" color-interpolation-filters="sRGB">
<feFlood flood-opacity="0" result="BackgroundImageFix"/>
<feBlend mode="normal" in="SourceGraphic" in2="BackgroundImageFix" result="shape"/>
<feGaussianBlur stdDeviation="143.787" result="effect1_foregroundBlur_0_1"/>
</filter>
<linearGradient id="paint0_linear_0_1" x1="919" y1="189" x2="1067.53" y2="1094.08" gradientUnits="userSpaceOnUse">
<stop offset="0.31" stop-color="#FE5D26" stop-opacity="0.3"/>
<stop offset="1" stop-color="#FE5D26" stop-opacity="0.21"/>
</linearGradient>
</defs>
</svg>
