<svg width="12" height="12" viewBox="0 0 12 12" fill="none" xmlns="http://www.w3.org/2000/svg">
<path d="M1.17763 11.0427H5.94815C5.99334 11.0427 6.03667 11.0246 6.06862 10.9922C6.10058 10.9599 6.11853 10.916 6.11853 10.8702C6.11853 10.8244 6.10058 10.7806 6.06862 10.7482C6.03667 10.7158 5.99334 10.6977 5.94815 10.6977H1.17763C1.13244 10.6977 1.08911 10.6795 1.05716 10.6471C1.02521 10.6148 1.00726 10.5709 1.00726 10.5251V0.517629C1.00726 0.471868 1.02521 0.427981 1.05716 0.395623C1.08911 0.363265 1.13244 0.345086 1.17763 0.345086H8.33341C8.3786 0.345086 8.42193 0.363265 8.45388 0.395623C8.48584 0.427981 8.50379 0.471868 8.50379 0.517629V2.24306C8.50379 2.28882 8.52174 2.33271 8.55369 2.36506C8.58564 2.39742 8.62898 2.4156 8.67416 2.4156C8.71935 2.4156 8.76268 2.39742 8.79464 2.36506C8.82659 2.33271 8.84454 2.28882 8.84454 2.24306V0.517629C8.84454 0.232243 8.61521 0 8.33341 0H1.17763C0.89583 0 0.666504 0.232243 0.666504 0.517629V10.5251C0.666504 10.8105 0.89583 11.0427 1.17763 11.0427Z" fill="white"/>
<path d="M6.80078 3.62407V10.5258C6.80078 10.8112 7.03011 11.0434 7.31191 11.0434H11.0602C11.342 11.0434 11.5713 10.8112 11.5713 10.5258V3.62407C11.5713 3.33869 11.342 3.10645 11.0602 3.10645H7.31191C7.03011 3.10645 6.80078 3.33869 6.80078 3.62407ZM11.2305 3.62407V10.5258C11.2305 10.5716 11.2126 10.6154 11.1806 10.6478C11.1487 10.6802 11.1054 10.6983 11.0602 10.6983H7.31191C7.26672 10.6983 7.22339 10.6802 7.19143 10.6478C7.15948 10.6154 7.14153 10.5716 7.14153 10.5258V3.62407C7.14153 3.57831 7.15948 3.53443 7.19143 3.50207C7.22339 3.46971 7.26672 3.45153 7.31191 3.45153H11.0602C11.1054 3.45153 11.1487 3.46971 11.1806 3.50207C11.2126 3.53443 11.2305 3.57831 11.2305 3.62407Z" fill="white"/>
<path d="M4.75628 10.0076C4.94447 10.0076 5.09703 9.85305 5.09703 9.66247C5.09703 9.47188 4.94447 9.31738 4.75628 9.31738C4.56809 9.31738 4.41553 9.47188 4.41553 9.66247C4.41553 9.85305 4.56809 10.0076 4.75628 10.0076Z" fill="white"/>
<path d="M9.18597 10.0076C9.37416 10.0076 9.52672 9.85305 9.52672 9.66247C9.52672 9.47188 9.37416 9.31738 9.18597 9.31738C8.99777 9.31738 8.84521 9.47188 8.84521 9.66247C8.84521 9.85305 8.99777 10.0076 9.18597 10.0076Z" fill="white"/>
</svg>
