<svg width="12" height="10" viewBox="0 0 12 10" fill="none" xmlns="http://www.w3.org/2000/svg">
<path d="M0.75 1.67832C0.75 1.2332 0.908035 0.806315 1.18934 0.491569C1.47064 0.176823 1.85218 0 2.25 0H9.75C10.1478 0 10.5294 0.176823 10.8107 0.491569C11.092 0.806315 11.25 1.2332 11.25 1.67832V5.87413C11.25 6.31924 11.092 6.74613 10.8107 7.06088C10.5294 7.37562 10.1478 7.55245 9.75 7.55245H2.25C1.85218 7.55245 1.47064 7.37562 1.18934 7.06088C0.908035 6.74613 0.75 6.31924 0.75 5.87413V1.67832ZM2.25 0.839161C2.05109 0.839161 1.86032 0.927572 1.71967 1.08495C1.57902 1.24232 1.5 1.45576 1.5 1.67832V5.87413C1.5 6.09668 1.57902 6.31013 1.71967 6.4675C1.86032 6.62488 2.05109 6.71329 2.25 6.71329H9.75C9.94891 6.71329 10.1397 6.62488 10.2803 6.4675C10.421 6.31013 10.5 6.09668 10.5 5.87413V1.67832C10.5 1.45576 10.421 1.24232 10.2803 1.08495C10.1397 0.927572 9.94891 0.839161 9.75 0.839161H2.25ZM0 8.81119C0 8.69991 0.0395089 8.59319 0.109835 8.5145C0.180161 8.43581 0.275544 8.39161 0.375 8.39161H11.625C11.7245 8.39161 11.8198 8.43581 11.8902 8.5145C11.9605 8.59319 12 8.69991 12 8.81119C12 8.92247 11.9605 9.02919 11.8902 9.10788C11.8198 9.18656 11.7245 9.23077 11.625 9.23077H0.375C0.275544 9.23077 0.180161 9.18656 0.109835 9.10788C0.0395089 9.02919 0 8.92247 0 8.81119Z" fill="white"/>
</svg>
