<svg width="8" height="12" viewBox="0 0 8 12" fill="none" xmlns="http://www.w3.org/2000/svg">
<path d="M6.71314 11.5556H1.28686C0.926754 11.5338 0.589705 11.3689 0.349035 11.0966C0.108366 10.8244 -0.0164502 10.4669 0.00174289 10.102V1.4536C-0.0164502 1.08863 0.108366 0.731142 0.349035 0.458919C0.589705 0.186696 0.926754 0.0217617 1.28686 0H6.71314C7.07325 0.0217617 7.4103 0.186696 7.65097 0.458919C7.89164 0.731142 8.01645 1.08863 7.99826 1.4536V10.102C8.01645 10.4669 7.89164 10.8244 7.65097 11.0966C7.4103 11.3689 7.07325 11.5338 6.71314 11.5556ZM1.28686 0.581441C1.07924 0.603656 0.8885 0.707422 0.755549 0.870475C0.622599 1.03353 0.558034 1.24288 0.57571 1.4536V10.102C0.558034 10.3127 0.622599 10.522 0.755549 10.6851C0.8885 10.8481 1.07924 10.9519 1.28686 10.9741H6.71314C6.92076 10.9519 7.1115 10.8481 7.24445 10.6851C7.3774 10.522 7.44197 10.3127 7.42429 10.102V1.4536C7.44197 1.24288 7.3774 1.03353 7.24445 0.870475C7.1115 0.707422 6.92076 0.603656 6.71314 0.581441H1.28686Z" fill="white"/>
</svg>
