<svg width="14" height="13" viewBox="0 0 14 13" fill="none" xmlns="http://www.w3.org/2000/svg">
<path d="M3.85177 5.3768L2.12805 4.7268L2.57152 4.0703L4.29524 4.72355L3.85177 5.37355V5.3768ZM7.1903 4.29715C7.31644 4.29715 7.41752 4.2068 7.41752 4.0989C7.41752 3.99035 7.31644 3.9 7.1903 3.9C7.06415 3.9 6.96387 3.991 6.96387 4.0989C6.96387 4.2068 7.06415 4.29715 7.19108 4.29715M6.57289 4.1821C6.58175 4.16122 6.58625 4.13924 6.58621 4.1171C6.58621 4.00855 6.48592 3.9182 6.35978 3.9182C6.23834 3.9182 6.13335 4.00855 6.13335 4.1171C6.13335 4.22565 6.23834 4.31535 6.36056 4.31535C6.3888 4.31472 6.41667 4.30988 6.44283 4.30105L6.55566 4.4018C6.54923 4.42083 6.54632 4.44055 6.54704 4.4603C6.54704 4.5682 6.64733 4.65855 6.77347 4.65855C6.89492 4.65855 6.99521 4.5682 6.99521 4.45965C6.99521 4.3511 6.8957 4.2614 6.77347 4.2614C6.74365 4.26155 6.71414 4.2664 6.6865 4.2757L6.57289 4.1821ZM6.17722 4.4382C6.17722 4.54675 6.07302 4.6371 5.95079 4.6371H5.91631L5.76353 4.8607C5.78748 4.8933 5.80014 4.93075 5.80014 4.96892C5.80014 5.0071 5.78748 5.04455 5.76353 5.07715L5.84188 5.17855C5.87702 5.17042 5.91396 5.16923 5.94975 5.17508C5.98554 5.18092 6.01918 5.19365 6.04797 5.21223C6.07677 5.23081 6.09991 5.25472 6.11555 5.28206C6.1312 5.3094 6.1389 5.3394 6.13805 5.36965C6.13805 5.4782 6.03384 5.56465 5.91161 5.56465C5.88126 5.56431 5.8513 5.55899 5.82344 5.54898C5.79559 5.53897 5.77041 5.52448 5.74935 5.50635C5.72829 5.48821 5.71178 5.46679 5.70076 5.44333C5.68975 5.41987 5.68445 5.39482 5.68518 5.36965C5.68466 5.34105 5.6904 5.31592 5.70242 5.29425L5.60291 5.1675H5.57627C5.54592 5.16716 5.51595 5.16184 5.4881 5.15183C5.46025 5.14182 5.43507 5.12733 5.41401 5.1092C5.39295 5.09106 5.37644 5.06964 5.36542 5.04618C5.35441 5.02272 5.34911 4.99767 5.34984 4.9725C5.34984 4.8646 5.45013 4.77425 5.57706 4.77425H5.59821L5.75491 4.5396C5.73379 4.50874 5.72323 4.47368 5.72435 4.4382C5.72435 4.32965 5.82464 4.2393 5.95079 4.2393C6.07223 4.2393 6.17722 4.3303 6.17722 4.4382ZM5.1759 4.69105C5.20625 4.69071 5.23622 4.68539 5.26407 4.67538C5.29192 4.66537 5.31711 4.65088 5.33816 4.63275C5.35922 4.61461 5.37574 4.59319 5.38675 4.56973C5.39776 4.54627 5.40306 4.52122 5.40233 4.49605C5.40233 4.3875 5.30204 4.29715 5.1759 4.29715C5.04975 4.29715 4.94947 4.38425 4.94947 4.49605C4.94947 4.5214 4.95808 4.54675 4.9667 4.5682L4.78415 4.7814C4.76424 4.7768 4.74369 4.77439 4.72303 4.77425C4.60159 4.77425 4.5013 4.8607 4.5013 4.9725C4.5013 5.08105 4.60159 5.1714 4.72303 5.1714C4.85388 5.1714 4.95025 5.0804 4.95025 4.9725C4.95165 4.94401 4.9455 4.91561 4.93223 4.8893L5.10617 4.6839C5.12864 4.69027 5.15216 4.69378 5.1759 4.6943V4.69105ZM6.58621 4.8932C6.58621 5.00175 6.48592 5.0921 6.35978 5.0921C6.23834 5.0921 6.13335 5.0011 6.13335 4.8932C6.13335 4.78465 6.23834 4.6943 6.36056 4.6943C6.48593 4.6943 6.58621 4.7814 6.58621 4.8932ZM6.54234 7.05965C6.54382 7.01158 6.52384 6.96476 6.48624 6.92816C6.44864 6.89157 6.39607 6.86779 6.33863 6.8614C6.21241 6.7886 6.12136 6.68105 6.08163 6.55785C6.09361 6.53019 6.0979 6.50063 6.09417 6.4714C6.10952 6.40274 6.1418 6.33745 6.18899 6.27962C6.23618 6.22179 6.29726 6.17268 6.3684 6.13535C6.47339 6.11715 6.54312 6.03785 6.54312 5.94035C6.54312 5.83245 6.44675 5.74535 6.32531 5.74535C6.29459 5.74526 6.26416 5.75026 6.23581 5.76007C6.20746 5.76988 6.18176 5.78429 6.16023 5.80246C6.13869 5.82063 6.12175 5.84219 6.11041 5.86587C6.09906 5.88955 6.09354 5.91487 6.09417 5.94035L6.09887 5.97675C6.055 6.1568 5.95079 6.24715 5.86382 6.2907C5.74159 6.2907 5.646 6.38105 5.646 6.4896C5.646 6.5832 5.72044 6.6625 5.81994 6.6846C5.92963 6.73855 6.08163 6.8471 6.11219 6.9875C6.10071 7.01038 6.0946 7.03487 6.09417 7.05965C6.09417 7.1682 6.19446 7.25465 6.32139 7.25465C6.35167 7.25423 6.38155 7.24884 6.40932 7.23879C6.43708 7.22875 6.46217 7.21425 6.48314 7.19612C6.50412 7.17799 6.52056 7.1566 6.53153 7.13318C6.5425 7.10976 6.54777 7.08477 6.54704 7.05965H6.54234ZM4.54439 6.4896C4.54439 6.5975 4.44489 6.68785 4.31874 6.68785C4.19651 6.68785 4.09623 6.5975 4.09623 6.4896C4.09623 6.38105 4.19651 6.2907 4.31874 6.2907C4.4441 6.2907 4.54439 6.38105 4.54439 6.4896ZM4.86798 7.0811C4.8919 7.04869 4.90388 7.01118 4.90246 6.9732C4.90246 6.86465 4.79825 6.7782 4.67602 6.7782C4.6454 6.7787 4.61519 6.78425 4.58718 6.79452C4.55916 6.80479 4.53388 6.81958 4.51281 6.83802C4.49174 6.85647 4.4753 6.87821 4.46445 6.90197C4.45359 6.92574 4.44854 6.95105 4.44959 6.97645C4.44959 7.085 4.54988 7.17145 4.6768 7.17145H4.70266L4.92831 7.48215C4.91029 7.51127 4.9014 7.54368 4.90246 7.5764C4.90246 7.6843 5.00274 7.77465 5.12419 7.77465C5.25112 7.77465 5.35141 7.6882 5.35141 7.5764C5.35141 7.46785 5.25112 7.3814 5.12419 7.3814C5.11115 7.3805 5.09805 7.3805 5.08501 7.3814L4.86798 7.0811ZM4.58905 7.50035C4.58905 7.6089 4.48876 7.69925 4.36262 7.69925C4.30096 7.69738 4.24266 7.67548 4.2003 7.63827C4.15794 7.60106 4.13491 7.55152 4.13618 7.50035C4.13618 7.39245 4.24117 7.3021 4.3634 7.3021C4.48876 7.3021 4.58905 7.39245 4.58905 7.50035ZM4.09701 7.17535C4.21924 7.17535 4.31953 7.085 4.31953 6.97645C4.31953 6.8679 4.21924 6.7782 4.09701 6.7782C4.06638 6.7787 4.03618 6.78425 4.00816 6.79452C3.98014 6.80479 3.95487 6.81958 3.9338 6.83802C3.91273 6.85647 3.89629 6.87821 3.88544 6.90197C3.87458 6.92574 3.86953 6.95105 3.87057 6.97645C3.87057 7.085 3.97086 7.17145 4.09779 7.17145L4.09701 7.17535ZM4.58905 5.45675C4.58714 5.4917 4.57675 5.52596 4.5585 5.5575L4.7199 5.746H4.77161L4.92831 5.55425C4.90964 5.52416 4.90073 5.49056 4.90246 5.45675C4.90246 5.3482 5.00274 5.25785 5.12419 5.25785C5.25112 5.25785 5.35141 5.3482 5.35141 5.45675C5.35141 5.5653 5.25112 5.655 5.12419 5.655H5.08501L4.92439 5.85C4.94241 5.87912 4.9513 5.91153 4.95025 5.94425C4.95025 6.05215 4.84996 6.1425 4.72382 6.1425C4.60237 6.1425 4.50208 6.05215 4.50208 5.94425C4.50208 5.8968 4.51932 5.85325 4.54596 5.82075L4.39709 5.65175L4.37124 5.655L4.25371 5.8643C4.27545 5.88299 4.29247 5.90509 4.30377 5.92932C4.31508 5.95354 4.32043 5.97939 4.31953 6.00535C4.31953 6.1139 4.21924 6.20425 4.09701 6.20425C3.97165 6.20425 3.87057 6.11325 3.87057 6.00535C3.87057 5.9007 3.95833 5.8175 4.07585 5.8071L4.1973 5.59C4.15864 5.55294 4.137 5.50575 4.13618 5.45675C4.13618 5.3482 4.24117 5.25785 4.3634 5.25785C4.48876 5.25785 4.58905 5.3482 4.58905 5.45675ZM5.45953 6.1425C5.58567 6.1425 5.68596 6.05215 5.68596 5.941C5.68596 5.8318 5.58567 5.746 5.45953 5.746C5.3985 5.74736 5.34055 5.76857 5.2982 5.80505C5.25584 5.84152 5.23246 5.89035 5.2331 5.941C5.2331 6.0489 5.33809 6.13925 5.46031 6.13925L5.45953 6.1425ZM5.86852 7.8039C5.99937 7.8039 6.09574 7.7168 6.09574 7.605C6.0968 7.55383 6.07357 7.50436 6.03106 7.46728C5.98856 7.43019 5.93018 7.40845 5.86852 7.40675C5.74708 7.40675 5.64679 7.4971 5.64679 7.605C5.64679 7.71355 5.74708 7.8039 5.86852 7.8039ZM6.57368 8.1068C6.57368 8.21535 6.47417 8.3057 6.34724 8.3057C6.32214 8.3053 6.29728 8.30157 6.27359 8.29465L6.17331 8.4396C6.18216 8.46048 6.18666 8.48246 6.18663 8.5046C6.18663 8.6125 6.08634 8.70285 5.96019 8.70285C5.83875 8.70285 5.73846 8.6164 5.73846 8.5046V8.4682L5.53788 8.2771C5.506 8.28646 5.47206 8.29001 5.43837 8.2875L5.3945 8.3746C5.43011 8.41132 5.44848 8.45751 5.44621 8.5046C5.44621 8.6125 5.3467 8.70285 5.22448 8.70285C5.19385 8.70235 5.16365 8.6968 5.13563 8.68653C5.10761 8.67626 5.08233 8.66147 5.06127 8.64302C5.0402 8.62458 5.02376 8.60284 5.0129 8.57908C5.00205 8.55531 4.997 8.53 4.99804 8.5046C4.99804 8.39605 5.09441 8.3096 5.21586 8.3057L5.27227 8.20105C5.24655 8.16888 5.23291 8.1311 5.2331 8.0925C5.2331 7.9846 5.33809 7.89425 5.46031 7.89425C5.58567 7.89425 5.68596 7.9807 5.68596 8.0925L5.67264 8.1575L5.85598 8.33105C5.88225 8.3189 5.91124 8.31137 5.94116 8.30891C5.97108 8.30645 6.0013 8.30912 6.02992 8.31675L6.13413 8.1718C6.12554 8.15088 6.1213 8.1289 6.12159 8.1068C6.12159 7.9989 6.2258 7.90855 6.34724 7.90855C6.47417 7.90855 6.57446 7.9989 6.57446 8.10745M6.99756 6.54095C6.99756 6.64885 6.89727 6.7392 6.77504 6.7392C6.64889 6.7392 6.54861 6.64885 6.54861 6.5403C6.54861 6.43175 6.64028 6.3492 6.7578 6.34205C6.83615 6.2985 6.93174 6.2049 6.98815 6.02355C6.96504 5.97796 6.96226 5.92703 6.98032 5.8799C6.95677 5.75624 6.87891 5.64418 6.76172 5.5653C6.70255 5.56153 6.6473 5.53933 6.60704 5.50316C6.56679 5.46699 6.54451 5.41953 6.54469 5.3703C6.54469 5.2624 6.64889 5.17205 6.77504 5.17205C6.89648 5.17205 6.99677 5.2585 6.99677 5.3703C6.99677 5.40237 6.98972 5.4327 6.97562 5.4613C7.01871 5.551 7.10568 5.71025 7.18873 5.746C7.31879 5.746 7.41908 5.83245 7.41908 5.941C7.41958 5.97814 7.4077 6.01467 7.38475 6.04656C7.3618 6.07844 7.32867 6.10445 7.28902 6.1217L7.30156 6.12495C7.22015 6.16906 7.1509 6.22697 7.09837 6.29485C7.04585 6.36274 7.01122 6.43908 6.99677 6.51885L6.99756 6.54095ZM7.22321 7.25595C7.25362 7.2557 7.28367 7.25043 7.31162 7.24047C7.33956 7.2305 7.36484 7.21602 7.38598 7.19788C7.40712 7.17973 7.4237 7.15829 7.43477 7.13478C7.44583 7.11127 7.45115 7.08618 7.45042 7.06095C7.45042 6.9524 7.34935 6.86205 7.22321 6.86205C7.16169 6.86391 7.10351 6.88573 7.06117 6.9228C7.01883 6.95987 6.99571 7.00924 6.99677 7.0603C6.99729 7.09063 7.00461 7.11837 7.01871 7.1435L6.83145 7.38205H6.8009C6.77055 7.38239 6.74058 7.38771 6.71273 7.39772C6.68487 7.40773 6.65969 7.42222 6.63863 7.44035C6.61757 7.45849 6.60106 7.47991 6.59004 7.50337C6.57903 7.52683 6.57373 7.55188 6.57446 7.57705C6.57446 7.68495 6.67475 7.7753 6.80168 7.7753C6.86306 7.77327 6.92104 7.75139 6.96321 7.71433C7.00539 7.67728 7.0284 7.628 7.02733 7.57705C7.0265 7.54033 7.01465 7.50436 6.99286 7.4724L7.16679 7.2514L7.22321 7.25595ZM7.41908 8.10745C7.41908 8.216 7.31879 8.30635 7.19265 8.30635C7.0665 8.30635 6.96622 8.2199 6.96622 8.10745C6.96622 7.99955 7.0665 7.9092 7.19343 7.9092C7.31879 7.9092 7.41908 7.99955 7.41908 8.1081M7.60242 8.7477C7.72779 8.7477 7.82807 8.66125 7.82807 8.5488C7.82807 8.4409 7.72857 8.35055 7.60242 8.35055C7.4802 8.35055 7.37991 8.4409 7.37991 8.5488C7.37991 8.65735 7.4802 8.7477 7.60242 8.7477ZM7.86725 6.4909C7.86725 6.5988 7.76774 6.68915 7.6416 6.68915C7.51937 6.68915 7.41908 6.5988 7.41908 6.4909C7.41908 6.38235 7.51937 6.292 7.64552 6.292C7.76774 6.292 7.86725 6.38235 7.86725 6.4909ZM8.05529 7.2631C8.11667 7.26107 8.17465 7.23918 8.21683 7.20213C8.259 7.16508 8.28201 7.1158 8.28094 7.06485C8.28094 6.9563 8.17673 6.86595 8.05451 6.86595C7.92915 6.86595 7.82807 6.95695 7.82807 7.06485C7.82807 7.09345 7.83669 7.1227 7.8461 7.14415L7.68469 7.3606H7.67607C7.64572 7.36094 7.61576 7.36626 7.5879 7.37627C7.56005 7.38628 7.53487 7.40077 7.51381 7.4189C7.49275 7.43704 7.47624 7.45846 7.46522 7.48192C7.45421 7.50538 7.44891 7.53043 7.44964 7.5556C7.44964 7.66415 7.54993 7.7545 7.67607 7.7545C7.73773 7.75263 7.79603 7.73073 7.83839 7.69352C7.88075 7.65631 7.90378 7.60677 7.90251 7.5556C7.9028 7.51267 7.88599 7.47085 7.85471 7.43665L7.99418 7.25595C8.01142 7.2631 8.03335 7.2631 8.05451 7.2631M8.28016 8.0938C8.27918 8.13274 8.26418 8.17055 8.23707 8.20235L8.31933 8.3109H8.34127C8.46742 8.3109 8.56771 8.39735 8.56771 8.5059C8.56771 8.61445 8.46742 8.70415 8.34049 8.70415C8.21513 8.70415 8.11484 8.6177 8.11484 8.5059C8.11484 8.46625 8.13208 8.42595 8.15872 8.39735L8.07566 8.2888H8.05373C8.02338 8.28846 7.99341 8.28314 7.96555 8.27313C7.9377 8.26312 7.91252 8.24863 7.89146 8.2305C7.8704 8.21236 7.85389 8.19094 7.84287 8.16748C7.83186 8.14402 7.82656 8.11897 7.82729 8.0938C7.82729 7.9859 7.92758 7.89555 8.05451 7.89555C8.17595 7.89555 8.28016 7.982 8.28016 8.0938ZM8.49797 7.7545C8.62882 7.7545 8.72441 7.66805 8.72441 7.5556C8.72441 7.4477 8.62412 7.35735 8.50189 7.35735C8.37653 7.35735 8.27624 7.4477 8.27624 7.55625C8.27624 7.6648 8.37575 7.7545 8.50189 7.7545H8.49797ZM9.02057 8.05805C9.02057 8.16595 8.91558 8.2563 8.79336 8.2563C8.66799 8.2563 8.56771 8.16595 8.56771 8.05805C8.56771 7.9495 8.668 7.85915 8.79414 7.85915C8.91558 7.85915 9.01587 7.9456 9.01587 8.05805H9.02057ZM9.17728 6.6963C9.30264 6.6963 9.40371 6.60595 9.40371 6.49805C9.40498 6.44677 9.38184 6.39714 9.33931 6.35991C9.29678 6.32268 9.23829 6.30085 9.17649 6.29915C9.05113 6.29915 8.95084 6.3856 8.95084 6.49805C8.95084 6.60595 9.05113 6.6963 9.17728 6.6963ZM9.00334 7.11555C9.04315 7.07886 9.06471 7.03101 9.06367 6.98165C9.0645 6.9563 9.05931 6.93105 9.04838 6.90737C9.03745 6.88368 9.021 6.86201 8.99997 6.8436C8.97894 6.82519 8.95374 6.8104 8.92582 6.80007C8.8979 6.78974 8.86779 6.78407 8.83723 6.7834C8.71579 6.7834 8.6108 6.87375 8.6108 6.98165C8.6108 7.0902 8.70717 7.17665 8.82861 7.18055L8.97278 7.37555C8.95883 7.40041 8.95135 7.42743 8.95084 7.45485C8.95084 7.56275 9.05113 7.65375 9.17728 7.65375C9.30342 7.65375 9.40371 7.56665 9.40371 7.45485C9.40389 7.41625 9.39026 7.37847 9.36453 7.3463L9.48206 7.1552C9.59018 7.1552 9.67324 7.08305 9.67324 6.9888C9.67324 6.8952 9.58627 6.82305 9.48598 6.82305C9.43416 6.82407 9.38495 6.84209 9.34911 6.87316C9.31328 6.90423 9.29375 6.94581 9.2948 6.9888C9.2948 7.01805 9.30264 7.0473 9.31596 7.06875L9.19843 7.25985C9.17099 7.25691 9.14314 7.25801 9.11616 7.2631L9.00647 7.11555H9.00334ZM5.19392 6.60205C5.22116 6.57051 5.23644 6.53294 5.2378 6.49415C5.2378 6.38235 5.13359 6.29265 5.01136 6.29265C4.88052 6.29265 4.78493 6.38235 4.78493 6.4909C4.78493 6.59945 4.88522 6.68915 5.01136 6.68915H5.0286L5.25582 6.97775C5.24093 7.00375 5.23317 7.03217 5.2331 7.06095C5.2331 7.1695 5.33809 7.25595 5.46031 7.25595C5.4906 7.25553 5.52048 7.25014 5.54824 7.24009C5.576 7.23005 5.60109 7.21555 5.62207 7.19742C5.64304 7.17929 5.65949 7.1579 5.67045 7.13448C5.68142 7.11106 5.68669 7.08607 5.68596 7.06095C5.68596 6.95305 5.58567 6.8627 5.45953 6.8627C5.44064 6.8619 5.42169 6.86299 5.40312 6.86595L5.19392 6.60205ZM7.08609 8.71L6.97718 8.62355C6.9884 8.60063 6.99425 8.57614 6.99442 8.5514C6.99442 8.4396 6.89492 8.34925 6.77269 8.34925C6.64654 8.34925 6.54625 8.4396 6.54625 8.5475C6.54625 8.65605 6.64654 8.7464 6.77269 8.7464C6.79463 8.7464 6.81578 8.7464 6.83772 8.73925L6.94271 8.8218C6.93 8.8471 6.92386 8.87434 6.92469 8.90175C6.92469 9.00965 7.02498 9.1 7.15191 9.1C7.27335 9.1 7.37756 9.00965 7.37756 8.90175C7.37756 8.7932 7.27335 8.70285 7.15112 8.70285C7.12915 8.7027 7.10726 8.70511 7.08609 8.71ZM6.63793 8.90175C6.63899 8.95292 6.61576 9.00239 6.57325 9.03947C6.53074 9.07656 6.47236 9.0983 6.41071 9.1C6.28535 9.1 6.18506 9.00965 6.18506 8.90175C6.18506 8.7932 6.28535 8.70285 6.41149 8.70285C6.53764 8.70285 6.63793 8.79385 6.63793 8.90175ZM4.99648 8.0015C4.99648 8.11005 4.89697 8.2004 4.77004 8.2004C4.64468 8.2004 4.54439 8.11005 4.54439 8.0015C4.54439 7.89295 4.6439 7.80325 4.77004 7.80325C4.89697 7.80325 4.99726 7.8936 4.99726 8.0015M8.20964 5.9722C8.21048 5.9956 8.20624 6.01894 8.19711 6.0411L8.39298 6.29395H8.4447C8.57084 6.29395 8.67191 6.3804 8.67191 6.48895C8.67191 6.5975 8.57084 6.6872 8.4447 6.6872C8.32325 6.6872 8.21826 6.59685 8.21826 6.48895C8.21826 6.45645 8.22714 6.42742 8.2449 6.40185L8.04041 6.14185H8.01847C7.91426 6.14185 7.82651 6.07035 7.82651 5.97285C7.82651 5.88185 7.91348 5.80645 8.01847 5.80645C8.07028 5.80747 8.1195 5.82549 8.15533 5.85656C8.19116 5.88763 8.21069 5.92921 8.20964 5.9722ZM9.124 6.0047C9.124 6.11325 9.01979 6.2036 8.89756 6.2036C8.77142 6.2036 8.67113 6.1126 8.67113 6.0047C8.67113 5.89615 8.77142 5.80645 8.89835 5.80645C9.01979 5.80645 9.124 5.8929 9.124 6.0047ZM8.67113 5.42685C8.67113 5.5354 8.57084 5.629 8.4447 5.629C8.32325 5.629 8.21826 5.53865 8.21826 5.43075C8.21826 5.3222 8.32325 5.23185 8.44548 5.23185C8.57084 5.23185 8.67113 5.31895 8.67113 5.43075V5.42685ZM7.81789 4.459C7.81789 4.56755 7.71838 4.6579 7.59145 4.6579C7.47001 4.6579 7.36972 4.56755 7.36972 4.459C7.36972 4.35045 7.47001 4.26075 7.59145 4.26075C7.71838 4.26075 7.81867 4.3511 7.81867 4.459M8.36713 4.7125C8.49327 4.7125 8.59435 4.6215 8.59435 4.5136C8.59435 4.40505 8.49327 4.3147 8.36713 4.3147C8.24568 4.3147 8.14069 4.40505 8.14069 4.5136C8.14069 4.62215 8.24568 4.71185 8.36791 4.71185M7.44964 4.8919C7.44964 5.00045 7.34935 5.0908 7.22321 5.0908C7.10176 5.0908 6.99677 4.9998 6.99677 4.8919C6.99677 4.78335 7.10176 4.693 7.22399 4.693C7.34935 4.693 7.44964 4.7801 7.44964 4.8919ZM8.72519 5.1701C8.85604 5.1701 8.95162 5.0791 8.95162 4.9712C8.95162 4.8633 8.85134 4.77295 8.72441 4.77295C8.60296 4.77295 8.50268 4.8594 8.50268 4.9712C8.50268 5.07975 8.60296 5.1701 8.72519 5.1701ZM8.08115 5.12655C8.12301 5.11006 8.15831 5.08398 8.18288 5.05138C8.20745 5.01879 8.22027 4.98104 8.21983 4.9426C8.21983 4.83405 8.12032 4.7437 7.9981 4.7437C7.87195 4.7437 7.77166 4.8308 7.77166 4.9426C7.77166 4.96405 7.77166 4.9855 7.78028 5.0037C7.75046 5.087 7.68571 5.1587 7.59772 5.20585C7.54499 5.21941 7.49902 5.24686 7.46678 5.28404C7.43455 5.32122 7.4178 5.36611 7.41908 5.4119C7.41908 5.5276 7.52877 5.6251 7.65884 5.6251C7.7889 5.6251 7.90172 5.5276 7.90172 5.4119C7.9015 5.39111 7.89727 5.37048 7.88919 5.3508C7.91583 5.2598 8.01142 5.17335 8.08115 5.12655ZM9.40371 5.5133C9.40403 5.56698 9.37933 5.61868 9.33476 5.6576L9.40371 5.8019C9.46571 5.80475 9.52399 5.82738 9.56634 5.86506C9.60869 5.90273 9.63183 5.95254 9.63093 6.00405C9.63093 6.1126 9.52594 6.20295 9.40371 6.20295C9.27835 6.20295 9.17806 6.11195 9.17806 6.00405C9.17806 5.95335 9.19921 5.91045 9.22977 5.87405L9.15142 5.7083C9.09537 5.70125 9.04428 5.67763 9.00757 5.6418C8.97085 5.60596 8.95098 5.56033 8.95162 5.5133C8.95162 5.40475 9.05191 5.3144 9.17806 5.3144C9.3042 5.3144 9.40449 5.40085 9.40449 5.51265M6.96465 1.95C7.11816 1.9494 7.27002 1.9237 7.41153 1.87435C7.55305 1.82501 7.68145 1.75299 7.78938 1.66243C7.8973 1.57187 7.98264 1.46453 8.04051 1.34658C8.09837 1.22862 8.12762 1.10235 8.12659 0.975C8.12659 0.43355 7.60399 0 6.96465 0C6.81114 0.000595421 6.65928 0.0263015 6.51776 0.0756467C6.37625 0.124992 6.24785 0.197007 6.13992 0.28757C6.03199 0.378134 5.94665 0.485466 5.88879 0.603425C5.83093 0.721383 5.80167 0.847651 5.80271 0.975C5.80271 1.51645 6.32452 1.95 6.96465 1.95ZM12.7665 4.84965C13.0742 4.86534 13.3767 4.779 13.6076 4.60962C13.8386 4.44024 13.9789 4.2017 13.9978 3.94647C14.0167 3.69125 13.9126 3.44025 13.7085 3.24868C13.5043 3.05712 13.2168 2.94069 12.9091 2.925C12.6015 2.90931 12.2989 2.99565 12.068 3.16503C11.8371 3.33441 11.6968 3.57295 11.6778 3.82818C11.6589 4.0834 11.763 4.3344 11.9672 4.52597C12.1713 4.71753 12.4589 4.83396 12.7665 4.84965ZM13.9293 9.02785C13.9293 9.14641 13.9011 9.26382 13.8464 9.37336C13.7917 9.48289 13.7116 9.58242 13.6105 9.66626C13.5094 9.7501 13.3895 9.8166 13.2574 9.86197C13.1254 9.90735 12.9839 9.9307 12.841 9.9307C12.698 9.9307 12.5565 9.90735 12.4245 9.86197C12.2924 9.8166 12.1725 9.7501 12.0714 9.66626C11.9704 9.58242 11.8902 9.48289 11.8355 9.37336C11.7808 9.26382 11.7527 9.14641 11.7527 9.02785C11.7527 8.7884 11.8673 8.55876 12.0714 8.38944C12.2755 8.22012 12.5523 8.125 12.841 8.125C13.1296 8.125 13.4064 8.22012 13.6105 8.38944C13.8146 8.55876 13.9293 8.7884 13.9293 9.02785ZM1.16199 4.875C1.80211 4.875 2.32001 4.44145 2.32001 3.9C2.32001 3.35855 1.79741 2.925 1.16277 2.925C1.0092 2.92551 0.857253 2.95115 0.715644 3.00046C0.574036 3.04977 0.445546 3.12177 0.337536 3.21234C0.229525 3.30291 0.144117 3.41027 0.0862044 3.52827C0.0282918 3.64628 -0.000987183 3.7726 4.47559e-05 3.9C4.47559e-05 4.44145 0.522645 4.875 1.16199 4.875ZM8.12737 12.025C8.12737 12.5664 7.60399 13 6.96465 13C6.81105 12.9997 6.65905 12.9741 6.51739 12.9249C6.37573 12.8756 6.24721 12.8036 6.13922 12.713C6.03123 12.6224 5.94591 12.515 5.88816 12.3969C5.8304 12.2788 5.80136 12.1524 5.80271 12.025C5.80271 11.4835 6.32452 11.05 6.96465 11.05C7.11816 11.0506 7.27002 11.0763 7.41153 11.1256C7.55305 11.175 7.68145 11.247 7.78938 11.3376C7.8973 11.4281 7.98264 11.5355 8.04051 11.6534C8.09837 11.7714 8.12762 11.8977 8.12659 12.025M1.1612 10.075C1.80133 10.075 2.31923 9.64145 2.31923 9.1C2.31923 8.55855 1.79663 8.125 1.15729 8.125C1.00409 8.12585 0.852592 8.15176 0.711476 8.20124C0.57036 8.25072 0.442394 8.32281 0.334903 8.41337C0.227412 8.50394 0.142506 8.6112 0.0850466 8.72902C0.0275871 8.84684 -0.00129804 8.97291 4.47559e-05 9.1C4.47559e-05 9.64145 0.522645 10.075 1.15807 10.075H1.1612ZM6.52823 3.6114V2.16645H7.39871V3.6114H6.52823ZM9.80643 5.6264L11.7519 4.7164L11.317 4.08785L9.3755 4.99785L9.81035 5.6264H9.80643ZM4.23491 7.9014L2.52372 8.7243L2.17585 8.18285L3.88233 7.3593L4.23021 7.9014H4.23491ZM6.52823 9.2664V10.7107H7.39871V9.2664H6.52823ZM11.3037 8.9154L9.30107 8.1575L9.64973 7.5439L11.6516 8.3057L11.3037 8.9154ZM7.94247 1.7654C8.09917 1.625 8.21278 1.45535 8.27389 1.2675L11.9564 2.9939C11.7725 3.11062 11.6262 3.26309 11.5302 3.43785L7.94403 1.7615L7.94247 1.7654ZM12.7657 5.0414C12.9013 5.0414 13.0321 5.0232 13.1575 4.99395V8.0132C12.9035 7.95 12.6327 7.95 12.3787 8.0132V4.99395C12.5048 5.0232 12.631 5.0414 12.7704 5.0414H12.7657ZM11.5607 9.59465L7.94717 11.2483C8.10387 11.3893 8.2214 11.5589 8.27859 11.7468L12.0214 10.0243C11.8249 9.9175 11.666 9.76885 11.5607 9.59465ZM5.64914 11.7513C5.70555 11.5596 5.82308 11.3899 5.97586 11.2489L2.37956 9.5992C2.27804 9.77414 2.12564 9.92536 1.93609 10.0392L5.64914 11.7513ZM1.16277 7.9625C1.02801 7.9625 0.897162 7.9807 0.771017 8.0093V4.9907C1.02487 5.0544 1.29597 5.0544 1.55061 4.9907V8.0093C1.42356 7.9776 1.29152 7.96183 1.15885 7.9625H1.16277ZM2.39915 3.43785L5.98605 1.7589C5.82728 1.61956 5.71354 1.44918 5.65541 1.2636L1.97213 2.99C2.15469 3.1057 2.30356 3.25715 2.39915 3.43785Z" fill="white"/>
</svg>
