<svg width="12" height="11" viewBox="0 0 12 11" fill="none" xmlns="http://www.w3.org/2000/svg">
<path d="M6 3.38462L4.5 4.125V5.60577L6 6.34615L7.5 5.60577V4.125L6 3.38462ZM6.7585 4.24769L5.9935 4.62508L5.235 4.25065L6 3.87327L6.7585 4.24769ZM4.995 4.62085L5.737 4.98723V5.72761L4.995 5.36165V4.62085ZM6.232 5.74327V4.99569L7.005 4.61408V5.36165L6.232 5.74327ZM1.5 0L0 0.740385V2.22115L1.5 2.96154L3 2.22115V0.740385L1.5 0ZM2.2585 0.863077L1.4935 1.24046L0.735 0.866038L1.5 0.488654L2.2585 0.863077ZM0.495 1.23581L1.237 1.60219V2.34258L0.495 1.97746V1.23581ZM1.732 2.35823V1.61108L2.505 1.22946V1.97704L1.732 2.35823ZM1.5 7.19231L0 7.93269V9.41346L1.5 10.1538L3 9.41346V7.93269L1.5 7.19231ZM2.2585 8.05538L1.4935 8.43277L0.735 8.05835L1.5 7.68096L2.2585 8.05538ZM0.495 8.42854L1.237 8.79492V9.53531L0.495 9.16977V8.42854ZM1.732 9.55096V8.80338L2.505 8.42177V9.16935L1.732 9.55096ZM10.5 0L9 0.740385V2.22115L10.5 2.96154L12 2.22115V0.740385L10.5 0ZM11.2585 0.863077L10.4935 1.24046L9.735 0.866038L10.5 0.488654L11.2585 0.863077ZM9.495 1.23623L10.237 1.60262V2.343L9.495 1.97704V1.23623ZM10.732 2.35865V1.61108L11.505 1.22946V1.97704L10.732 2.35865ZM10.5 7.19231L9 7.93269V9.41346L10.5 10.1538L12 9.41346V7.93269L10.5 7.19231ZM11.2585 8.05538L10.4935 8.43277L9.735 8.05835L10.5 7.68096L11.2585 8.05538ZM9.495 8.42854L10.237 8.79492V9.53531L9.495 9.16935V8.42854ZM10.732 9.55096V8.80338L11.505 8.42177V9.16935L10.732 9.55096ZM4.5 1.26923H7.5V1.69231H4.5V1.26923ZM4.5 8.46154H7.5V8.88461H4.5V8.46154ZM1.75 3.80769V6.34615H1.25V3.80769H1.75ZM3.6465 3.73492L2.586 2.83758L2.9395 2.53846L4 3.43538L3.6465 3.73492ZM8 3.50858L9.0605 2.61123L9.414 2.91035L8.3535 3.80769L8 3.50858ZM4.064 6.29496L3.0035 7.19231L2.65 6.89319L3.7105 5.99585L4.064 6.29496ZM8.4395 5.97765L9.5 6.875L9.1465 7.17412L8.086 6.27677L8.4395 5.97765ZM10.75 3.80769V6.34615H10.25V3.80769H10.75Z" fill="white"/>
</svg>
