<svg width="14" height="13" viewBox="0 0 14 13" fill="none" xmlns="http://www.w3.org/2000/svg">
<path d="M4.5 1V1.91667M2 4.20833H1M13 4.20833H12M2 6.5H1M13 6.5H12M2 8.79167H1M13 8.79167H12M4.5 11.0833V12M7 1V1.91667M7 11.0833V12M9.5 1V1.91667M9.5 11.0833V12M3.5 11.0833H10.5C10.8978 11.0833 11.2794 10.9385 11.5607 10.6806C11.842 10.4227 12 10.073 12 9.70833V3.29167C12 2.92699 11.842 2.57726 11.5607 2.31939C11.2794 2.06153 10.8978 1.91667 10.5 1.91667H3.5C3.10218 1.91667 2.72064 2.06153 2.43934 2.31939C2.15804 2.57726 2 2.92699 2 3.29167V9.70833C2 10.073 2.15804 10.4227 2.43934 10.6806C2.72064 10.9385 3.10218 11.0833 3.5 11.0833ZM4 3.75H10V9.25H4V3.75Z" stroke="white" stroke-linecap="round" stroke-linejoin="round"/>
</svg>
