<svg width="1276" height="2109" viewBox="0 0 1276 2109" fill="none" xmlns="http://www.w3.org/2000/svg">
<g filter="url(#filter0_f_136_89)">
<path d="M525.487 1036.73C328.301 923.35 42.6682 1172.78 -75.5 1311.67C-75.5 1328.99 236.316 1774.95 545.904 1818.09C855.492 1861.24 1719.3 1411.82 1576.75 1282.07C1434.21 1152.31 1440.15 1311.67 1071.54 1370.25C702.925 1428.83 771.97 1178.45 525.487 1036.73Z" fill="url(#paint0_linear_136_89)"/>
<path d="M525.487 1036.73C328.301 923.35 42.6682 1172.78 -75.5 1311.67C-75.5 1328.99 236.316 1774.95 545.904 1818.09C855.492 1861.24 1719.3 1411.82 1576.75 1282.07C1434.21 1152.31 1440.15 1311.67 1071.54 1370.25C702.925 1428.83 771.97 1178.45 525.487 1036.73Z" stroke="black" stroke-width="0.479289"/>
</g>
<g filter="url(#filter1_f_136_89)">
<path d="M1223 553.053C1223 700.671 1144.17 820.34 1046.92 820.34C949.671 820.34 289 911.898 289 764.279C289 616.661 873.113 615.12 970.361 615.12C1067.61 615.12 1223 405.435 1223 553.053Z" fill="#FE5D26"/>
</g>
<defs>
<filter id="filter0_f_136_89" x="-363.313" y="720.186" width="2243.63" height="1388.63" filterUnits="userSpaceOnUse" color-interpolation-filters="sRGB">
<feFlood flood-opacity="0" result="BackgroundImageFix"/>
<feBlend mode="normal" in="SourceGraphic" in2="BackgroundImageFix" result="shape"/>
<feGaussianBlur stdDeviation="143.787" result="effect1_foregroundBlur_136_89"/>
</filter>
<filter id="filter1_f_136_89" x="-211" y="0.40625" width="1934" height="1348" filterUnits="userSpaceOnUse" color-interpolation-filters="sRGB">
<feFlood flood-opacity="0" result="BackgroundImageFix"/>
<feBlend mode="normal" in="SourceGraphic" in2="BackgroundImageFix" result="shape"/>
<feGaussianBlur stdDeviation="250" result="effect1_foregroundBlur_136_89"/>
</filter>
<linearGradient id="paint0_linear_136_89" x1="758.5" y1="1008" x2="900.32" y2="1791.37" gradientUnits="userSpaceOnUse">
<stop offset="0.31" stop-color="#FE5D26" stop-opacity="0.3"/>
<stop offset="1" stop-color="#FE5D26" stop-opacity="0.21"/>
</linearGradient>
</defs>
</svg>
