<svg width="595" height="677" viewBox="0 0 595 677" fill="none" xmlns="http://www.w3.org/2000/svg">
<g filter="url(#filter0_f_0_1)">
<path d="M495 427.906C495 510.248 402.547 577 288.5 577C174.453 577 82 510.248 82 427.906C82 345.564 383.146 -75.5257 288.5 278.812C193.854 633.15 495 345.564 495 427.906Z" fill="url(#paint0_linear_0_1)" fill-opacity="0.62"/>
</g>
<path d="M476.873 486.018C500.595 486.018 519.826 474.645 519.826 460.615C519.826 446.586 500.595 435.212 476.873 435.212C453.15 435.212 433.92 446.586 433.92 460.615C433.92 474.645 453.15 486.018 476.873 486.018Z" fill="#E0E0E0"/>
<path d="M253.638 387.821L292.322 364.91C296.309 362.551 298.303 359.462 298.303 356.37C298.303 353.279 298.321 350.859 298.321 350.859L251.767 323.841C249.641 322.583 247.917 319.525 247.917 317.009V268.153L180.349 308.147L180.347 357.002C180.347 359.517 182.07 362.576 184.197 363.835L224.756 387.821C232.732 392.539 245.663 392.537 253.638 387.821Z" fill="#E7424A"/>
<g opacity="0.5">
<path d="M253.638 387.821L292.322 364.91C296.309 362.551 298.303 359.462 298.303 356.37C298.303 353.279 298.321 350.859 298.321 350.859L251.767 323.841C249.641 322.583 247.917 319.525 247.917 317.009V268.153L180.349 308.147L180.347 357.002C180.347 359.517 182.07 362.576 184.197 363.835L224.756 387.821C232.732 392.539 245.663 392.537 253.638 387.821Z" fill="black"/>
</g>
<path d="M196.571 365.653V371.141L184.187 363.831C182.075 362.579 180.34 359.526 180.34 356.998V308.148L193.214 300.541C193.48 303.889 193.769 307.351 194.036 310.721L185.009 316.073V354.242C185.009 356.77 186.721 359.822 188.856 361.075L196.571 365.653Z" fill="#E7424A"/>
<path opacity="0.7" d="M196.571 365.653V371.141L184.187 363.831C182.075 362.579 180.34 359.526 180.34 356.998V308.148L193.214 300.541C193.48 303.889 193.769 307.351 194.036 310.721L185.009 316.073V354.242C185.009 356.77 186.721 359.822 188.856 361.075L196.571 365.653Z" fill="black"/>
<path d="M185.008 354.252C185.008 356.768 186.732 359.827 188.858 361.085L224.752 382.312C232.728 387.028 245.658 387.031 253.635 382.316L292.339 359.407C300.316 354.692 300.316 347.046 292.342 342.329L256.43 321.091C254.303 319.832 252.578 316.774 252.578 314.258V276.084L185.008 316.079V354.252Z" fill="#E7424A"/>
<path opacity="0.3" d="M185.008 354.252C185.008 356.768 186.732 359.827 188.858 361.085L224.752 382.312C232.728 387.028 245.658 387.031 253.635 382.316L292.339 359.407C300.316 354.692 300.316 347.046 292.342 342.329L256.43 321.091C254.303 319.832 252.578 316.774 252.578 314.258V276.084L185.008 316.079V354.252Z" fill="black"/>
<path opacity="0.7" d="M264.272 325.733V325.728L256.428 321.089C254.301 319.831 252.577 316.772 252.577 314.257V276.083L185.007 316.078V354.254C185.007 356.769 186.731 359.828 188.858 361.086L196.566 365.644L264.272 325.733Z" fill="#E7424A"/>
<path opacity="0.6" d="M264.272 325.733V325.728L256.428 321.089C254.301 319.831 252.577 316.772 252.577 314.257V276.083L185.007 316.078V354.254C185.007 356.769 186.731 359.828 188.858 361.086L196.566 365.644L264.272 325.733Z" fill="black"/>
<path d="M298.313 350.862C298.313 350.862 298.313 353.276 298.313 356.374C298.313 359.472 296.313 362.546 292.333 364.915L253.643 387.814C249.818 390.091 244.861 391.23 239.858 391.32V385.831C244.861 385.764 249.818 384.579 253.643 382.325L292.333 359.403C296.312 357.056 298.313 353.959 298.313 350.862Z" fill="#E7424A"/>
<path opacity="0.2" d="M298.313 350.862C298.313 350.862 298.313 353.276 298.313 356.374C298.313 359.472 296.313 362.546 292.333 364.915L253.643 387.814C249.818 390.091 244.861 391.23 239.858 391.32V385.831C244.861 385.764 249.818 384.579 253.643 382.325L292.333 359.403C296.312 357.056 298.313 353.959 298.313 350.862Z" fill="black"/>
<path d="M76.5168 406.958C79.0102 408.433 83.1883 408.353 85.8456 406.782C119.065 387.136 313.94 271.889 347.155 252.247C349.813 250.674 351.966 246.852 351.966 243.707V9.42067C351.966 6.27631 349.945 2.53166 347.451 1.0566C344.957 -0.418449 340.78 -0.339496 338.122 1.23331L76.819 155.768C74.1604 157.341 72.0059 161.163 72.0059 164.309L72.0034 398.594C72.0022 401.738 74.0234 405.483 76.5168 406.958Z" fill="#E7424A"/>
<path opacity="0.3" d="M76.5168 406.958C79.0102 408.433 83.1883 408.353 85.8456 406.782C119.065 387.136 313.94 271.889 347.155 252.247C349.813 250.674 351.966 246.852 351.966 243.707V9.42067C351.966 6.27631 349.945 2.53166 347.451 1.0566C344.957 -0.418449 340.78 -0.339496 338.122 1.23331L76.819 155.768C74.1604 157.341 72.0059 161.163 72.0059 164.309L72.0034 398.594C72.0022 401.738 74.0234 405.483 76.5168 406.958Z" fill="black"/>
<path d="M85.8482 406.775L347.155 252.24C349.813 250.668 351.969 246.845 351.969 243.7V9.41438C351.969 6.27002 349.815 4.99549 347.155 6.56704L85.8507 161.103C83.1921 162.675 81.0376 166.498 81.0376 169.643L81.0339 403.928C81.0352 407.072 83.1897 408.347 85.8482 406.775Z" fill="#E7424A"/>
<path d="M85.8482 406.775L347.155 252.24C349.813 250.668 351.969 246.845 351.969 243.7V9.41438C351.969 6.27002 349.815 4.99549 347.155 6.56704L85.8507 161.103C83.1921 162.675 81.0376 166.498 81.0376 169.643L81.0339 403.928C81.0352 407.072 83.1897 408.347 85.8482 406.775Z" fill="#E7424A"/>
<path opacity="0.5" d="M85.8482 406.775L347.155 252.24C349.813 250.668 351.969 246.845 351.969 243.7V9.41438C351.969 6.27002 349.815 4.99549 347.155 6.56704L85.8507 161.103C83.1921 162.675 81.0376 166.498 81.0376 169.643L81.0339 403.928C81.0352 407.072 83.1897 408.347 85.8482 406.775Z" fill="black"/>
<path d="M85.1399 407.147C82.4715 408.354 78.7816 408.309 76.5133 406.966C74.0236 405.486 72 401.75 72 398.585V372.236L81.0266 377.589V403.938C81.0266 406.805 82.8055 408.104 85.1399 407.147Z" fill="#E7424A"/>
<path opacity="0.7" d="M85.1399 407.147C82.4715 408.354 78.7816 408.309 76.5133 406.966C74.0236 405.486 72 401.75 72 398.585V372.236L81.0266 377.589V403.938C81.0266 406.805 82.8055 408.104 85.1399 407.147Z" fill="black"/>
<path d="M81.0352 377.58V403.928C81.0352 407.072 83.1909 408.347 85.8483 406.775L347.155 252.241C349.813 250.668 351.968 246.845 351.968 243.7V217.351L81.0352 377.58Z" fill="#E7424A"/>
<g opacity="0.5">
<path d="M81.0352 377.58V403.928C81.0352 407.072 83.1909 408.347 85.8483 406.775L347.155 252.241C349.813 250.668 351.968 246.845 351.968 243.7V217.351L81.0352 377.58Z" fill="black"/>
</g>
<path d="M90.063 358.142L90.0655 172.713C90.0655 170.826 91.3587 168.532 92.954 167.588L340.044 21.4591C341.639 20.5155 342.933 21.2812 342.933 23.1673L342.941 208.6C342.941 210.487 341.648 212.781 340.053 213.725L92.9516 359.852C91.3562 360.794 90.063 360.028 90.063 358.142Z" fill="#FAFAFA"/>
<path d="M216.498 308.148C214.004 309.624 211.981 313.211 211.981 316.162C211.981 319.112 214.004 320.307 216.498 318.832C218.993 317.357 221.015 313.769 221.014 310.819C221.014 307.869 218.992 306.673 216.498 308.148Z" fill="#E7424A"/>
<path opacity="0.5" d="M216.498 308.148C214.004 309.624 211.981 313.211 211.981 316.162C211.981 319.112 214.004 320.307 216.498 318.832C218.993 317.357 221.015 313.769 221.014 310.819C221.014 307.869 218.992 306.673 216.498 308.148Z" fill="white"/>
<path d="M82.4495 164.765C81.5833 166.314 81.0487 168.067 81.0266 169.639V377.587L72 372.235V164.309C72 162.737 72.5555 160.984 73.4229 159.435L82.4495 164.765Z" fill="#E7424A"/>
<path opacity="0.7" d="M82.4495 164.765C81.5833 166.314 81.0487 168.067 81.0266 169.639V377.587L72 372.235V164.309C72 162.737 72.5555 160.984 73.4229 159.435L82.4495 164.765Z" fill="black"/>
<path d="M176.194 460.376L241.486 499.1C243.505 500.298 246.781 500.3 248.803 499.107L441.695 385.186C443.716 383.992 443.718 382.054 441.698 380.856L376.406 342.132C374.388 340.934 371.111 340.932 369.09 342.126L176.198 456.047C174.177 457.239 174.176 459.178 176.194 460.376Z" fill="#E0E0E0"/>
<path d="M437.739 373.988C437.741 373.205 437.234 372.422 436.224 371.824L374.884 335.554C372.864 334.358 369.588 334.361 367.568 335.557L180.402 446.429C179.392 447.026 178.888 447.81 178.888 448.592C178.89 449.375 178.89 454.399 178.888 455.18C178.887 455.964 179.394 456.748 180.408 457.344L241.715 493.612C243.737 494.802 247.015 494.8 249.036 493.604L436.224 382.909C437.23 382.313 437.736 381.534 437.739 380.754C437.743 379.969 437.739 374.771 437.739 373.988Z" fill="#E7424A"/>
<path opacity="0.5" d="M437.739 373.988C437.741 373.205 437.234 372.422 436.224 371.824L374.884 335.554C372.864 334.358 369.588 334.361 367.568 335.557L180.402 446.429C179.392 447.026 178.888 447.81 178.888 448.592C178.89 449.375 178.89 454.399 178.888 455.18C178.887 455.964 179.394 456.748 180.408 457.344L241.715 493.612C243.737 494.802 247.015 494.8 249.036 493.604L436.224 382.909C437.23 382.313 437.736 381.534 437.739 380.754C437.743 379.969 437.739 374.771 437.739 373.988Z" fill="black"/>
<path d="M241.715 486.854L180.408 450.752C178.385 449.561 178.383 447.626 180.403 446.429L367.569 335.557C369.589 334.36 372.864 334.359 374.885 335.554L436.224 371.824C438.246 373.018 438.246 374.956 436.224 376.151L249.037 486.848C247.016 488.042 243.738 488.046 241.715 486.854Z" fill="#E7424A"/>
<path opacity="0.3" d="M241.715 486.854L180.408 450.752C178.385 449.561 178.383 447.626 180.403 446.429L367.569 335.557C369.589 334.36 372.864 334.359 374.885 335.554L436.224 371.824C438.246 373.018 438.246 374.956 436.224 376.151L249.037 486.848C247.016 488.042 243.738 488.046 241.715 486.854Z" fill="black"/>
<path d="M245.14 487.745V494.481C243.9 494.452 242.661 494.164 241.703 493.617L180.415 457.351C179.402 456.745 178.894 455.966 178.894 455.187V448.58C178.894 449.359 179.402 450.138 180.415 450.745L241.703 486.865C242.662 487.414 243.901 487.716 245.14 487.745Z" fill="#E7424A"/>
<path opacity="0.7" d="M245.14 487.745V494.481C243.9 494.452 242.661 494.164 241.703 493.617L180.415 457.351C179.402 456.745 178.894 455.966 178.894 455.187V448.58C178.894 449.359 179.402 450.138 180.415 450.745L241.703 486.865C242.662 487.414 243.901 487.716 245.14 487.745Z" fill="black"/>
<path d="M323.43 382.252L330.418 386.382C330.586 386.483 330.786 386.493 330.863 386.493L337.306 382.818L329.79 378.49L323.43 382.252Z" fill="#37474F"/>
<path d="M331.841 377.279L338.857 381.429C338.972 381.488 339.119 381.52 339.272 381.52L339.533 381.503L345.715 377.846L338.198 373.517L331.841 377.279Z" fill="#37474F"/>
<path d="M309.274 390.629L316.288 394.778C316.402 394.836 316.553 394.869 316.699 394.869L327.129 388.84L319.614 384.51L309.274 390.629Z" fill="#37474F"/>
<path d="M300.865 395.601L307.872 399.747C307.986 399.807 308.139 399.842 308.291 399.842L314.738 396.169L307.221 391.839L300.865 395.601Z" fill="#37474F"/>
<path d="M262.456 460.672L268.899 456.997L261.385 452.671L255.024 456.429L262.042 460.579C262.159 460.639 262.306 460.672 262.456 460.672Z" fill="#37474F"/>
<path d="M292.457 400.574L299.433 404.7C299.596 404.801 299.786 404.816 299.885 404.816L306.331 401.143L298.814 396.813L292.457 400.574Z" fill="#37474F"/>
<path d="M339.297 384.112L332.936 387.873L339.938 392.013C340.056 392.078 340.208 392.113 340.368 392.113L346.813 388.436L339.297 384.112Z" fill="#37474F"/>
<path d="M315.794 417.887L322.24 414.214L314.724 409.885L308.362 413.643L315.367 417.787C315.483 417.851 315.639 417.887 315.794 417.887Z" fill="#37474F"/>
<path d="M348.776 387.142L355.222 383.468L347.7 379.138L341.348 382.899L348.361 387.048C348.477 387.11 348.624 387.142 348.776 387.142Z" fill="#37474F"/>
<path d="M307.386 422.86L313.833 419.187L306.315 414.858L299.955 418.617L306.934 422.744C307.096 422.845 307.286 422.86 307.386 422.86Z" fill="#37474F"/>
<path d="M298.98 427.834L305.423 424.161L297.907 419.832L291.545 423.59L298.563 427.74C298.68 427.799 298.832 427.834 298.98 427.834Z" fill="#37474F"/>
<path d="M332.61 407.942L346.131 400.08L329.12 390.131L321.87 394.414L330.762 399.67C330.877 399.739 331.014 399.86 331.014 400.046C331.014 400.174 330.932 400.298 330.794 400.38L325.182 403.697L332.152 407.818C332.318 407.927 332.51 407.942 332.61 407.942Z" fill="#37474F"/>
<path d="M275.638 410.516L282.648 414.666C282.762 414.726 282.915 414.761 283.067 414.761L289.514 411.088L281.997 406.759L275.638 410.516Z" fill="#37474F"/>
<path d="M324.199 412.916L330.648 409.243L323.13 404.913L316.77 408.671L323.738 412.792C323.91 412.903 324.118 412.916 324.199 412.916Z" fill="#37474F"/>
<path d="M228.403 458.329L234.848 454.655L227.331 450.325L220.97 454.087L227.95 458.211C228.119 458.318 228.322 458.329 228.403 458.329Z" fill="#37474F"/>
<path d="M208.371 450.299L215.405 454.457C215.516 454.509 215.662 454.539 215.802 454.539L216.063 454.522L222.245 450.865L214.728 446.539L208.371 450.299Z" fill="#37474F"/>
<path d="M240.12 462.641L240.38 462.623L246.562 458.966L239.046 454.64L232.689 458.398L239.706 462.548C239.82 462.608 239.967 462.641 240.12 462.641Z" fill="#37474F"/>
<path d="M245.64 470.617L252.085 466.943L244.566 462.614L238.209 466.376L245.187 470.502C245.356 470.605 245.56 470.617 245.64 470.617Z" fill="#37474F"/>
<path d="M216.78 445.326L223.796 449.475C223.91 449.533 224.061 449.567 224.21 449.567L230.653 445.892L223.136 441.566L216.78 445.326Z" fill="#37474F"/>
<path d="M254.051 465.647L260.49 461.97L252.977 457.645L246.616 461.402L253.627 465.549C253.744 465.611 253.9 465.647 254.051 465.647Z" fill="#37474F"/>
<path d="M242.004 430.407L249.014 434.554C249.13 434.616 249.281 434.651 249.436 434.651L255.883 430.98L248.366 426.651L242.004 430.407Z" fill="#37474F"/>
<path d="M250.413 425.435L257.407 429.571C257.527 429.64 257.687 429.679 257.846 429.679L264.289 426.006L256.772 421.677L250.413 425.435Z" fill="#37474F"/>
<path d="M258.821 420.463L265.8 424.591C265.963 424.693 266.152 424.708 266.253 424.708L272.699 421.034L265.179 416.706L258.821 420.463Z" fill="#37474F"/>
<path d="M233.596 435.381L240.576 439.508C240.739 439.61 240.928 439.625 241.026 439.625L247.475 435.951L239.957 431.623L233.596 435.381Z" fill="#37474F"/>
<path d="M267.233 415.493L274.244 419.64C274.299 419.667 274.451 419.734 274.66 419.734L281.107 416.06L273.586 411.73L267.233 415.493Z" fill="#37474F"/>
<path d="M225.188 440.353L232.198 444.498C232.315 444.561 232.471 444.597 232.622 444.597L239.066 440.924L231.546 436.596L225.188 440.353Z" fill="#37474F"/>
<path d="M284.045 405.543L291.072 409.701C291.184 409.757 291.33 409.788 291.474 409.788L297.922 406.115L290.406 401.786L284.045 405.543Z" fill="#37474F"/>
<path d="M305.053 404.36L312.042 408.491C312.202 408.587 312.39 408.601 312.488 408.601L312.746 408.583L318.926 404.928L311.413 400.602L305.053 404.36Z" fill="#37474F"/>
<path d="M350.43 366.288L357.415 370.419C357.582 370.518 357.781 370.529 357.858 370.529L364.304 366.856L356.787 362.526L350.43 366.288Z" fill="#37474F"/>
<path d="M358.838 361.317L365.828 365.446C365.947 365.518 366.106 365.558 366.265 365.558L372.713 361.884L365.195 357.555L358.838 361.317Z" fill="#37474F"/>
<path d="M296.648 409.333L303.641 413.467C303.801 413.56 303.985 413.574 304.079 413.574L310.522 409.899L303.005 405.571L296.648 409.333Z" fill="#37474F"/>
<path d="M367.246 356.343L374.231 360.473C374.399 360.572 374.597 360.584 374.674 360.584L381.12 356.91L373.604 352.58L367.246 356.343Z" fill="#37474F"/>
<path d="M320.896 403.629L321.156 403.612L327.339 399.959L319.823 395.63L313.461 399.388L320.451 403.519C320.611 403.614 320.798 403.629 320.896 403.629Z" fill="#37474F"/>
<path d="M359.928 371.906L366.903 376.027C367.068 376.135 367.262 376.151 367.363 376.151L373.805 372.477L366.29 368.148L359.928 371.906Z" fill="#37474F"/>
<path d="M376.744 361.961L383.719 366.081C383.89 366.193 384.097 366.205 384.177 366.205L390.623 362.532L383.106 358.203L376.744 361.961Z" fill="#37474F"/>
<path d="M375.773 371.178L382.217 367.505L374.699 363.176L368.337 366.935L375.348 371.078C375.466 371.142 375.616 371.178 375.773 371.178Z" fill="#37474F"/>
<path d="M401.693 366.767C401.805 366.82 401.95 366.85 402.09 366.85L402.351 366.832L408.532 363.178L391.517 353.227L385.155 356.987L401.693 366.767Z" fill="#37474F"/>
<path d="M288.238 414.306L295.225 418.437C295.386 418.533 295.572 418.547 295.668 418.547L295.929 418.529L302.115 414.874L294.598 410.544L288.238 414.306Z" fill="#37474F"/>
<path d="M385.274 376.795L385.536 376.778L391.717 373.121L384.201 368.796L377.839 372.553L384.829 376.682C384.99 376.781 385.177 376.795 385.274 376.795Z" fill="#37474F"/>
<path d="M393.683 371.824L400.129 368.149L392.61 363.823L386.249 367.582L393.218 371.7C393.382 371.808 393.58 371.824 393.683 371.824Z" fill="#37474F"/>
<path d="M246.195 439.17L253.175 443.295C253.338 443.397 253.53 443.412 253.63 443.412L260.073 439.738L252.557 435.408L246.195 439.17Z" fill="#37474F"/>
<path d="M229.383 449.115L236.359 453.241C236.522 453.343 236.712 453.358 236.812 453.358L237.072 453.34L243.257 449.683L235.74 445.354L229.383 449.115Z" fill="#37474F"/>
<path d="M256.94 452.697L263.384 449.024L255.863 444.695L249.505 448.453L256.529 452.603C256.596 452.638 256.742 452.697 256.94 452.697Z" fill="#37474F"/>
<path d="M248.529 457.668L254.975 453.997L247.456 449.668L241.099 453.427L248.116 457.577C248.23 457.635 248.377 457.668 248.529 457.668Z" fill="#37474F"/>
<path d="M265.345 447.722L265.605 447.704L271.79 444.051L264.274 439.721L257.912 443.48L264.892 447.604C265.061 447.711 265.264 447.722 265.345 447.722Z" fill="#37474F"/>
<path d="M279.828 419.279L286.825 423.413C286.941 423.481 287.1 423.52 287.261 423.52L287.521 423.502L293.703 419.845L286.19 415.519L279.828 419.279Z" fill="#37474F"/>
<path d="M282.161 437.78L288.606 434.107L281.091 429.778L274.729 433.535L281.709 437.664C281.877 437.768 282.08 437.78 282.161 437.78Z" fill="#37474F"/>
<path d="M273.756 442.752L280.2 439.078L272.682 434.75L266.321 438.508L273.339 442.658C273.456 442.718 273.608 442.752 273.756 442.752Z" fill="#37474F"/>
<path d="M263.012 429.224L269.992 433.349C270.154 433.45 270.348 433.465 270.447 433.465L276.889 429.791L269.373 425.462L263.012 429.224Z" fill="#37474F"/>
<path d="M237.788 444.143L244.766 448.267C244.929 448.368 245.121 448.383 245.222 448.383L251.664 444.709L244.147 440.38L237.788 444.143Z" fill="#37474F"/>
<path d="M271.422 424.252L278.409 428.382C278.569 428.479 278.758 428.493 278.856 428.493L285.298 424.818L277.781 420.489L271.422 424.252Z" fill="#37474F"/>
<path d="M254.607 434.197L261.583 438.323C261.746 438.424 261.938 438.439 262.038 438.439L262.299 438.422L268.481 434.765L260.964 430.436L254.607 434.197Z" fill="#37474F"/>
<path d="M290.566 432.806L297.014 429.133L289.496 424.804L283.135 428.563L290.141 432.706C290.259 432.771 290.411 432.806 290.566 432.806Z" fill="#37474F"/>
<path d="M340.248 372.306L347.266 376.455C347.382 376.514 347.529 376.547 347.68 376.547L354.122 372.872L346.607 368.544L340.248 372.306Z" fill="#37474F"/>
<path d="M206.321 451.514L199.96 455.271L206.98 459.422C207.095 459.481 207.242 459.513 207.394 459.513L207.654 459.496L213.84 455.839L206.321 451.514Z" fill="#37474F"/>
<path d="M218.923 455.3L209.466 460.892L216.484 465.042C216.6 465.1 216.747 465.133 216.897 465.133L217.158 465.115L226.439 459.628L218.923 455.3Z" fill="#37474F"/>
<path d="M196.116 443.906L188.426 448.45L195.415 452.581C195.576 452.677 195.763 452.691 195.861 452.691L203.633 448.234L196.116 443.906Z" fill="#37474F"/>
<path d="M236.161 467.587L228.475 472.134L235.451 476.259C235.62 476.364 235.824 476.376 235.904 476.376L243.678 471.915L236.161 467.587Z" fill="#37474F"/>
<path d="M230.638 459.614L218.969 466.513L225.986 470.664C226.101 470.723 226.248 470.755 226.4 470.755L226.661 470.738L238.156 463.939L230.638 459.614Z" fill="#37474F"/>
<path d="M209.254 444.773L215.7 441.099L208.183 436.77L201.822 440.527L208.802 444.655C208.964 444.757 209.154 444.773 209.254 444.773Z" fill="#37474F"/>
<path d="M237.977 477.754L244.963 481.885C245.082 481.955 245.242 481.995 245.404 481.995L254.946 476.486L247.431 472.16L237.977 477.754Z" fill="#37474F"/>
<path d="M217.665 439.799L224.107 436.125L216.59 431.796L210.234 435.557L217.249 439.706C217.364 439.768 217.512 439.799 217.665 439.799Z" fill="#37474F"/>
<path d="M254.953 417.745L255.213 417.727L261.399 414.07L253.882 409.741L247.525 413.502L254.519 417.637C254.634 417.706 254.793 417.745 254.953 417.745Z" fill="#37474F"/>
<path d="M263.364 412.772L269.807 409.097L262.29 404.769L255.93 408.53L262.926 412.664C263.085 412.758 263.269 412.772 263.364 412.772Z" fill="#37474F"/>
<path d="M246.544 422.717L246.805 422.7L252.99 419.043L245.474 414.714L239.113 418.475L246.093 422.6C246.261 422.706 246.465 422.717 246.544 422.717Z" fill="#37474F"/>
<path d="M234.478 429.853L234.739 429.836L240.923 426.179L233.407 421.85L227.05 425.611L234.042 429.746C234.159 429.816 234.318 429.853 234.478 429.853Z" fill="#37474F"/>
<path d="M226.071 434.828L232.516 431.153L224.999 426.823L218.642 430.584L225.649 434.73C225.765 434.792 225.915 434.828 226.071 434.828Z" fill="#37474F"/>
<path d="M405.262 378.823L412.29 382.981C412.403 383.034 412.547 383.064 412.688 383.064L412.948 383.047L419.134 379.39L411.617 375.061L405.262 378.823Z" fill="#37474F"/>
<path d="M361.444 404.732L368.423 408.856C368.587 408.961 368.777 408.977 368.876 408.977L375.321 405.304L367.806 400.975L361.444 404.732Z" fill="#37474F"/>
<path d="M388.44 388.769L395.427 392.898C395.595 393 395.794 393.01 395.872 393.01L396.132 392.992L410.726 384.362L403.21 380.034L388.44 388.769Z" fill="#37474F"/>
<path d="M369.852 399.76L376.826 403.88C376.99 403.985 377.186 404.002 377.287 404.002L383.731 400.331L376.213 396.002L369.852 399.76Z" fill="#37474F"/>
<path d="M378.261 394.787L385.21 398.893C385.38 399.013 385.588 399.03 385.696 399.03L392.139 395.357L384.623 391.028L378.261 394.787Z" fill="#37474F"/>
<path d="M271.769 407.799L272.03 407.781L278.216 404.124L270.699 399.796L264.339 403.557L271.318 407.682C271.479 407.784 271.67 407.799 271.769 407.799Z" fill="#37474F"/>
<path d="M410.524 364.467L404.163 368.229L420.699 378.008C420.813 378.062 420.954 378.091 421.098 378.091L421.359 378.073L427.538 374.418L410.524 364.467Z" fill="#37474F"/>
<path d="M259.22 465.192L266.196 469.316C266.365 469.422 266.57 469.433 266.649 469.433L274.421 464.973L266.907 460.643L259.22 465.192Z" fill="#37474F"/>
<path d="M268.957 459.433L275.922 463.551C276.087 463.659 276.283 463.676 276.384 463.676L276.645 463.658L324.428 435.403L316.911 431.07L268.957 459.433Z" fill="#37474F"/>
<path d="M270.865 455.699L277.31 452.028L269.793 447.699L263.433 451.457L270.443 455.603C270.559 455.665 270.71 455.699 270.865 455.699Z" fill="#37474F"/>
<path d="M249.483 470.948L256.461 475.075C256.624 475.177 256.814 475.192 256.912 475.192L264.686 470.731L257.169 466.403L249.483 470.948Z" fill="#37474F"/>
<path d="M318.96 429.858L325.949 433.989C326.11 434.085 326.296 434.099 326.394 434.099L326.655 434.082L334.167 429.642L326.647 425.313L318.96 429.858Z" fill="#37474F"/>
<path d="M338.434 418.344L345.436 422.486C345.594 422.572 345.772 422.586 345.867 422.586L346.127 422.568L353.638 418.126L346.121 413.796L338.434 418.344Z" fill="#37474F"/>
<path d="M328.698 424.1L335.714 428.249C335.832 428.309 335.983 428.343 336.132 428.343L343.904 423.88L336.384 419.554L328.698 424.1Z" fill="#37474F"/>
<path d="M348.168 412.585L355.156 416.716C355.318 416.812 355.504 416.826 355.602 416.826L355.862 416.809L365.141 411.321L357.626 406.991L348.168 412.585Z" fill="#37474F"/>
<path d="M357.184 382.169L357.444 382.152L363.629 378.495L356.113 374.166L349.752 377.927L356.755 382.069C356.873 382.133 357.024 382.169 357.184 382.169Z" fill="#37474F"/>
<path d="M367.781 398.383L368.042 398.366L374.226 394.709L366.711 390.38L360.35 394.137L367.352 398.283C367.509 398.37 367.688 398.383 367.781 398.383Z" fill="#37474F"/>
<path d="M338.134 415.919L355.64 405.7L348.124 401.371L330.702 411.674L337.725 415.825C337.778 415.854 337.93 415.919 338.134 415.919Z" fill="#37474F"/>
<path d="M386.37 387.39L386.631 387.373L392.815 383.712L385.297 379.387L378.939 383.148L385.955 387.297C386.072 387.358 386.218 387.39 386.37 387.39Z" fill="#37474F"/>
<path d="M394.778 382.416L395.038 382.399L401.221 378.743L393.705 374.413L387.347 378.175L394.348 382.317C394.505 382.404 394.684 382.416 394.778 382.416Z" fill="#37474F"/>
<path d="M329.719 420.892L336.168 417.218L328.651 412.89L322.291 416.647L329.276 420.78C329.394 420.85 329.555 420.892 329.719 420.892Z" fill="#37474F"/>
<path d="M376.866 381.768L377.127 381.751L383.31 378.094L375.792 373.768L369.432 377.526L376.4 381.644C376.565 381.753 376.762 381.768 376.866 381.768Z" fill="#37474F"/>
<path d="M287.682 445.753L294.124 442.079L286.61 437.752L280.249 441.511L287.259 445.657C287.376 445.719 287.526 445.753 287.682 445.753Z" fill="#37474F"/>
<path d="M321.318 425.864L327.757 422.187L320.244 417.861L313.884 421.62L320.917 425.778C320.97 425.804 321.119 425.864 321.318 425.864Z" fill="#37474F"/>
<path d="M279.274 450.726L279.535 450.708L285.715 447.051L278.202 442.727L271.841 446.484L278.859 450.633C278.975 450.693 279.122 450.726 279.274 450.726Z" fill="#37474F"/>
<path d="M296.093 440.783L302.536 437.11L295.02 432.781L288.659 436.539L295.699 440.698C295.765 440.729 295.907 440.783 296.093 440.783Z" fill="#37474F"/>
<path d="M304.498 435.807L304.759 435.79L310.939 432.133L303.426 427.807L297.065 431.565L304.045 435.69C304.208 435.792 304.399 435.807 304.498 435.807Z" fill="#37474F"/>
<path d="M312.907 430.834L313.167 430.817L319.353 427.164L311.836 422.835L305.475 426.592L312.493 430.743C312.607 430.802 312.754 430.834 312.907 430.834Z" fill="#37474F"/>
<path d="M292.247 395.69L298.69 392.016L291.173 387.691L284.812 391.449L291.792 395.575C291.955 395.674 292.147 395.69 292.247 395.69Z" fill="#37474F"/>
<path d="M403.187 377.444L403.447 377.427L409.633 373.77L402.114 369.441L395.757 373.202L402.773 377.352C402.888 377.412 403.035 377.444 403.187 377.444Z" fill="#37474F"/>
<path d="M309.064 385.745L315.506 382.07L307.99 377.744L301.629 381.502L308.607 385.627C308.771 385.728 308.963 385.745 309.064 385.745Z" fill="#37474F"/>
<path d="M327.74 374.7L334.183 371.025L326.666 366.696L320.306 370.457L327.294 374.587C327.455 374.685 327.643 374.7 327.74 374.7Z" fill="#37474F"/>
<path d="M319.332 379.673L325.774 375.998L318.258 371.67L311.897 375.431L318.886 379.561C319.046 379.658 319.234 379.673 319.332 379.673Z" fill="#37474F"/>
<path d="M283.839 400.662L290.281 396.987L282.764 392.659L276.407 396.42L283.401 400.554C283.56 400.648 283.744 400.662 283.839 400.662Z" fill="#37474F"/>
<path d="M300.655 390.716L300.914 390.699L307.097 387.042L299.58 382.717L293.219 386.475L300.199 390.601C300.363 390.701 300.555 390.716 300.655 390.716Z" fill="#37474F"/>
<path d="M336.149 369.727L342.59 366.053L335.074 361.724L328.714 365.485L335.702 369.614C335.862 369.712 336.051 369.727 336.149 369.727Z" fill="#37474F"/>
<path d="M369.112 347.348L375.552 343.671L371.466 341.41L365.1 345.174L368.68 347.244C368.799 347.311 368.956 347.348 369.112 347.348Z" fill="#37474F"/>
<path d="M383.083 355.612L389.528 351.939L382.01 347.609L375.653 351.37L382.636 355.499C382.805 355.601 383.005 355.612 383.083 355.612Z" fill="#37474F"/>
<path d="M343.885 362.263L344.146 362.245L350.324 358.588L346.241 356.328L339.88 360.091L343.439 362.151C343.601 362.249 343.787 362.263 343.885 362.263Z" fill="#37474F"/>
<path d="M352.293 357.291L352.554 357.274L358.731 353.617L354.65 351.356L348.288 355.12L351.881 357.199C351.994 357.258 352.144 357.291 352.293 357.291Z" fill="#37474F"/>
<path d="M360.701 352.318L367.14 348.644L363.057 346.383L356.697 350.147L360.289 352.226C360.401 352.285 360.553 352.318 360.701 352.318Z" fill="#37474F"/>
<g opacity="0.8">
<path d="M370.271 27.7752V213.824C370.271 216.296 368.574 219.289 366.495 220.52L121.691 365.57C121.257 365.823 120.824 365.95 120.44 365.937C120.279 365.937 120.118 365.912 119.957 365.873C119.846 365.848 119.734 365.809 119.635 365.759C119.56 365.722 119.499 365.683 119.437 365.645C119.362 365.594 119.289 365.544 119.214 365.492C119.14 365.428 119.066 365.378 119.004 365.302C118.707 365.022 118.484 364.68 118.31 364.287C118.063 363.716 117.914 363.043 117.914 362.334V177.226C117.914 174.766 119.609 171.76 121.689 170.53L366.493 25.5432C367.471 24.973 368.35 24.884 369.031 25.2136C369.143 25.265 369.254 25.3277 369.353 25.4041C369.365 25.4167 369.378 25.4292 369.378 25.4292C369.477 25.5056 369.551 25.5808 369.625 25.6823C369.674 25.7199 369.699 25.7713 369.736 25.8214C369.785 25.8854 369.835 25.948 369.86 26.0245C369.959 26.1761 370.033 26.3415 370.082 26.5195C370.119 26.621 370.157 26.7351 370.169 26.8616C370.181 26.8867 370.194 26.9118 370.181 26.9381C370.218 27.0521 370.23 27.1662 370.244 27.2927C370.258 27.4456 370.271 27.6111 370.271 27.7752Z" fill="#455A64"/>
<path d="M368.169 26.2753C368.299 26.2753 368.411 26.2991 368.533 26.358C368.549 26.3655 368.564 26.3718 368.575 26.378L368.577 26.3805L368.648 26.4344L368.751 26.5748L368.752 26.5811L368.843 26.7202C368.855 26.7377 368.865 26.7565 368.874 26.7753L368.854 26.8142L368.972 27.1776L368.976 27.2177L369.003 27.2728L369.014 27.3054C369.02 27.3405 369.023 27.3769 369.025 27.3957C369.035 27.5147 369.046 27.6438 369.046 27.7741V213.824C369.046 215.85 367.596 218.419 365.881 219.435L121.083 364.482C120.776 364.663 120.575 364.685 120.447 364.685C120.445 364.685 120.442 364.685 120.44 364.685C120.39 364.685 120.32 364.675 120.184 364.641C120.15 364.624 120.122 364.606 120.092 364.589L119.937 364.482L119.91 364.46L119.893 364.438L119.831 364.38C119.673 364.232 119.541 364.034 119.429 363.78C119.239 363.342 119.138 362.843 119.138 362.337V177.226C119.138 175.199 120.588 172.63 122.303 171.615L367.099 26.6324C367.499 26.3993 367.869 26.2753 368.169 26.2753ZM368.169 25.022C367.663 25.022 367.098 25.1912 366.494 25.5434L121.69 170.53C119.61 171.76 117.915 174.766 117.915 177.226V362.336C117.915 363.046 118.064 363.718 118.311 364.288C118.484 364.682 118.708 365.024 119.005 365.303C119.066 365.38 119.141 365.43 119.215 365.494C119.29 365.544 119.365 365.595 119.438 365.647C119.5 365.684 119.562 365.723 119.636 365.761C119.735 365.811 119.847 365.85 119.958 365.875C120.119 365.912 120.28 365.939 120.441 365.939C120.458 365.939 120.477 365.94 120.494 365.94C120.864 365.94 121.278 365.813 121.692 365.571L366.495 220.521C368.575 219.29 370.27 216.298 370.27 213.825V27.7754C370.27 27.61 370.258 27.4458 370.246 27.2929C370.234 27.1663 370.222 27.0523 370.184 26.9382C370.196 26.9132 370.184 26.8868 370.171 26.8618C370.159 26.7352 370.122 26.6212 370.084 26.5196C370.036 26.3417 369.961 26.1775 369.862 26.0246C369.837 25.9482 369.787 25.8855 369.738 25.8216C369.702 25.7702 369.677 25.7201 369.627 25.6825C369.552 25.581 369.478 25.5045 369.379 25.4293C369.379 25.4293 369.366 25.4168 369.354 25.4043C369.255 25.3278 369.144 25.2652 369.032 25.2138C368.772 25.0872 368.482 25.022 368.169 25.022Z" fill="#455A64"/>
<g opacity="0.7">
<path d="M370.271 27.7752V213.824C370.271 216.296 368.574 219.289 366.495 220.52L121.691 365.57C121.257 365.823 120.824 365.95 120.44 365.937C120.279 365.937 120.118 365.912 119.957 365.873C119.846 365.848 119.734 365.809 119.635 365.759C119.56 365.722 119.499 365.683 119.437 365.645C119.362 365.594 119.289 365.544 119.214 365.492C119.14 365.428 119.066 365.378 119.004 365.302C118.707 365.022 118.484 364.68 118.31 364.287C118.063 363.716 117.914 363.043 117.914 362.334V177.226C117.914 174.766 119.609 171.76 121.689 170.53L366.493 25.5432C367.471 24.973 368.35 24.884 369.031 25.2136C369.143 25.265 369.254 25.3277 369.353 25.4041C369.365 25.4167 369.378 25.4292 369.378 25.4292C369.477 25.5056 369.551 25.5808 369.625 25.6823C369.674 25.7199 369.699 25.7713 369.736 25.8214C369.785 25.8854 369.835 25.948 369.86 26.0245C369.959 26.1761 370.033 26.3415 370.082 26.5195C370.119 26.621 370.157 26.7351 370.169 26.8616C370.181 26.8867 370.194 26.9118 370.181 26.9381C370.218 27.0521 370.23 27.1662 370.244 27.2927C370.258 27.4456 370.271 27.6111 370.271 27.7752Z" fill="#455A64"/>
</g>
</g>
<path d="M369.033 25.2139C368.351 24.8843 367.473 24.9733 366.494 25.5435L121.691 170.53C119.611 171.761 117.915 174.766 117.915 177.226V189.856L113.099 186.965V174.422C113.099 171.962 114.783 168.97 116.863 167.739L361.68 22.7525C362.756 22.1059 363.723 22.0933 364.415 22.5244C365.095 22.9443 368.228 24.7828 369.033 25.2139Z" fill="#E7424A"/>
<path d="M370.262 27.7492C370.247 25.3092 368.568 24.3216 366.494 25.5485L121.688 170.534C119.606 171.766 117.917 174.761 117.917 177.225L117.921 189.861L370.262 40.4294V27.7492Z" fill="#E7424A"/>
<g opacity="0.4">
<path d="M366.491 25.5472L121.693 170.532C120.662 171.151 119.712 172.197 119.036 173.4L114.243 170.556C114.92 169.366 115.847 168.33 116.868 167.735L361.675 22.75C362.754 22.1058 363.715 22.0958 364.415 22.5206C365.092 22.9455 368.223 24.7689 369.018 25.2063C368.354 24.8792 367.464 24.9757 366.491 25.5472Z" fill="white"/>
</g>
<path opacity="0.15" d="M113.093 186.981L113.096 174.421C113.096 173.169 113.544 171.784 114.243 170.557L119.048 173.389C118.348 174.604 117.921 175.976 117.921 177.228V189.864L113.093 186.981Z" fill="black"/>
<path d="M347.544 42.1349C346.367 42.8305 345.413 44.8996 345.413 46.7556C345.413 48.6116 346.367 49.5516 347.544 48.856C348.721 48.1605 349.675 46.0914 349.675 44.2353C349.675 42.3781 348.721 41.4381 347.544 42.1349Z" fill="#455A64"/>
<path d="M355.216 37.5881C354.039 38.2836 353.085 40.3527 353.085 42.2087C353.085 44.0648 354.039 45.0047 355.216 44.3092C356.393 43.6136 357.347 41.5445 357.347 39.6885C357.347 37.8325 356.393 36.8925 355.216 37.5881Z" fill="#455A64"/>
<path d="M362.888 33.0427C361.711 33.7383 360.757 35.8073 360.757 37.6634C360.757 39.5194 361.711 40.4593 362.888 39.7638C364.065 39.0683 365.02 36.9992 365.02 35.1431C365.02 33.2871 364.065 32.3472 362.888 33.0427Z" fill="#455A64"/>
<path opacity="0.9" d="M119.301 365.583C119.165 365.494 119.004 365.405 118.83 365.303C118.484 365.088 118.087 364.86 117.666 364.632L117.654 364.619C117.444 364.493 117.233 364.366 117.023 364.252C117.011 364.239 116.986 364.227 116.973 364.227C116.626 364.024 116.291 363.821 115.982 363.643C115.66 363.452 115.375 363.288 115.152 363.16C114.93 363.021 114.756 362.932 114.681 362.895C114.446 362.768 114.224 362.59 114.038 362.362C113.839 362.147 113.666 361.881 113.53 361.576C113.258 360.992 113.097 360.283 113.097 359.535V186.965L117.912 189.856V362.336C117.949 363.097 118.086 363.743 118.309 364.288C118.481 364.682 118.705 365.024 119.002 365.303C119.053 365.38 119.126 365.443 119.213 365.494C119.239 365.532 119.264 365.558 119.301 365.583Z" fill="#37474F"/>
<path d="M199.756 254.252C199.756 254.252 190.844 248.349 189.691 248.312C188.539 248.274 164.374 247.497 164.374 247.497L174.439 252.984V253.437L199.756 254.252Z" fill="#263238"/>
<path d="M156.341 272.034V255.791L199.754 200.516V222.071L174.439 252.984V253.437L199.754 254.252V275.807L156.341 272.034Z" fill="#FAFAFA"/>
<path d="M199.755 200.516L189.691 194.575L146.278 249.85L156.341 255.791L199.755 200.516Z" fill="#455A64"/>
<path d="M146.278 249.85V266.094L156.341 272.034V255.791L146.278 249.85Z" fill="#37474F"/>
<path d="M226.033 265.128L212.557 273.097L246.153 146.967L259.148 139.281L226.033 265.128Z" fill="#FAFAFA"/>
<path d="M259.147 139.28L249.084 133.341L236.088 141.026L246.151 146.967L259.147 139.28Z" fill="#455A64"/>
<path d="M236.088 141.026L246.151 146.967L212.557 273.097L202.492 267.156L236.088 141.026Z" fill="#37474F"/>
<path d="M261.885 205.618L271.949 211.558L297.265 180.344L287.201 174.405L261.885 205.618Z" fill="#263238"/>
<path d="M297.265 180.344L271.95 179.376V157.821L315.363 161.747V177.99L271.95 233.114V211.558L297.265 180.799V180.344Z" fill="#FAFAFA"/>
<path d="M261.885 151.88L271.949 157.821L315.362 161.747L305.298 155.807L261.885 151.88Z" fill="#455A64"/>
<path d="M271.949 157.821V179.376L261.885 173.437V151.88" fill="#37474F"/>
<path d="M261.885 205.618L271.949 211.558V233.114L261.885 227.175V205.618Z" fill="#37474F"/>
<g opacity="0.8">
<path d="M449.31 59.862V245.91C449.31 248.383 447.614 251.376 445.534 252.606L341.189 314.275C340.756 314.529 340.323 314.655 339.939 314.643C339.777 314.643 339.617 314.618 339.456 314.579C339.344 314.554 339.233 314.515 339.134 314.465C339.06 314.427 338.998 314.388 338.936 314.351C338.862 314.301 338.788 314.249 338.713 314.199C338.638 314.135 338.565 314.085 338.503 314.009C338.205 313.729 337.983 313.387 337.809 312.993C337.562 312.423 337.412 311.75 337.412 311.041V125.931C337.412 123.471 339.108 120.466 341.188 119.235L445.533 57.63C446.51 57.0597 447.39 56.9708 448.07 57.3004C448.181 57.3505 448.293 57.4144 448.392 57.4909C448.404 57.5034 448.416 57.5159 448.416 57.5159C448.516 57.5924 448.59 57.6676 448.664 57.7691C448.712 57.8067 448.738 57.8581 448.775 57.9082C448.825 57.9721 448.874 58.0347 448.898 58.1112C448.998 58.2628 449.072 58.4283 449.121 58.6062C449.158 58.7077 449.196 58.8218 449.208 58.9484C449.22 58.9734 449.232 58.9997 449.22 59.0248C449.257 59.1389 449.27 59.2529 449.283 59.3795C449.297 59.5324 449.31 59.6978 449.31 59.862Z" fill="#455A64"/>
<path d="M447.208 58.363C447.339 58.363 447.45 58.3868 447.573 58.4457C447.589 58.4532 447.603 58.4595 447.615 58.467L447.616 58.4682L447.686 58.5221L447.79 58.6637L447.791 58.6675L447.883 58.8079C447.894 58.8254 447.904 58.843 447.914 58.8605L447.893 58.8981L448.013 59.2678L448.016 59.3041L448.041 59.3555L448.053 59.3944C448.06 59.4295 448.062 59.4658 448.064 59.4821C448.074 59.6024 448.085 59.7315 448.085 59.8618V245.91C448.085 247.937 446.636 250.506 444.921 251.521L340.581 313.188C340.274 313.368 340.072 313.391 339.945 313.391C339.943 313.391 339.94 313.391 339.938 313.391C339.887 313.391 339.818 313.38 339.682 313.347C339.649 313.329 339.62 313.313 339.59 313.294L339.435 313.188L339.407 313.165L339.39 313.144L339.328 313.086C339.171 312.938 339.038 312.74 338.927 312.487C338.736 312.048 338.636 311.55 338.636 311.043V125.931C338.636 123.904 340.084 121.335 341.8 120.321L446.138 58.7189C446.538 58.4858 446.908 58.363 447.208 58.363ZM447.208 57.1097C446.702 57.1097 446.137 57.2789 445.533 57.6311L341.188 119.236C339.108 120.467 337.412 123.472 337.412 125.932V311.043C337.412 311.754 337.562 312.426 337.809 312.996C337.983 313.389 338.205 313.731 338.503 314.011C338.564 314.087 338.638 314.137 338.713 314.201C338.788 314.251 338.862 314.303 338.936 314.353C338.998 314.391 339.059 314.429 339.134 314.467C339.233 314.517 339.344 314.556 339.456 314.581C339.616 314.619 339.777 314.645 339.939 314.645C339.956 314.645 339.974 314.646 339.991 314.646C340.362 314.646 340.776 314.52 341.189 314.278L445.534 252.609C447.614 251.379 449.31 248.385 449.31 245.913V59.8618C449.31 59.6964 449.297 59.5322 449.285 59.3793C449.273 59.2528 449.261 59.1387 449.223 59.0247C449.235 58.9996 449.223 58.9745 449.21 58.9482C449.198 58.8216 449.16 58.7076 449.124 58.6061C449.075 58.4281 449 58.264 448.901 58.1111C448.876 58.0346 448.826 57.972 448.777 57.9081C448.741 57.8567 448.716 57.8065 448.666 57.7689C448.591 57.6674 448.518 57.591 448.419 57.5158C448.419 57.5158 448.407 57.5033 448.394 57.4907C448.295 57.4143 448.184 57.3516 448.073 57.3002C447.811 57.1749 447.521 57.1097 447.208 57.1097Z" fill="#455A64"/>
<g opacity="0.8">
<path d="M449.31 59.862V245.91C449.31 248.383 447.614 251.376 445.534 252.606L341.189 314.275C340.756 314.529 340.323 314.655 339.939 314.643C339.777 314.643 339.617 314.618 339.456 314.579C339.344 314.554 339.233 314.515 339.134 314.465C339.06 314.427 338.998 314.388 338.936 314.351C338.862 314.301 338.788 314.249 338.713 314.199C338.638 314.135 338.565 314.085 338.503 314.009C338.205 313.729 337.983 313.387 337.809 312.993C337.562 312.423 337.412 311.75 337.412 311.041V125.931C337.412 123.471 339.108 120.466 341.188 119.235L445.533 57.63C446.51 57.0597 447.39 56.9708 448.07 57.3004C448.181 57.3505 448.293 57.4144 448.392 57.4909C448.404 57.5034 448.416 57.5159 448.416 57.5159C448.516 57.5924 448.59 57.6676 448.664 57.7691C448.712 57.8067 448.738 57.8581 448.775 57.9082C448.825 57.9721 448.874 58.0347 448.898 58.1112C448.998 58.2628 449.072 58.4283 449.121 58.6062C449.158 58.7077 449.196 58.8218 449.208 58.9484C449.22 58.9734 449.232 58.9997 449.22 59.0248C449.257 59.1389 449.27 59.2529 449.283 59.3795C449.297 59.5324 449.31 59.6978 449.31 59.862Z" fill="#455A64"/>
</g>
</g>
<path d="M448.071 57.3002C447.39 56.9706 446.511 57.0595 445.534 57.6298L341.189 119.235C339.109 120.466 337.414 123.471 337.414 125.931V138.562L332.598 135.671V123.129C332.598 120.669 334.282 117.676 336.361 116.445L440.718 54.8401C441.795 54.1934 442.762 54.1809 443.454 54.612C444.134 55.0305 447.266 56.869 448.071 57.3002Z" fill="#E7424A"/>
<path d="M449.301 59.837C449.286 57.3969 447.606 56.4094 445.533 57.6363L341.188 119.24C339.106 120.472 337.417 123.467 337.417 125.931L337.421 138.568L449.302 72.5159V59.837H449.301Z" fill="#E7424A"/>
<g opacity="0.4">
<path d="M445.53 57.6337L341.19 119.238C340.159 119.857 339.21 120.902 338.533 122.105L333.741 119.261C334.417 118.071 335.345 117.036 336.365 116.44L440.714 54.8365C441.793 54.1924 442.754 54.1823 443.454 54.6072C444.131 55.032 447.261 56.8555 448.057 57.2929C447.392 56.9658 446.503 57.0635 445.53 57.6337Z" fill="white"/>
</g>
<path opacity="0.15" d="M332.592 135.686L332.594 123.126C332.594 121.874 333.042 120.489 333.742 119.263L338.547 122.094C337.847 123.309 337.42 124.682 337.42 125.934V138.569L332.592 135.686Z" fill="black"/>
<path d="M426.583 74.2215C425.406 74.9171 424.451 76.9861 424.451 78.8422C424.451 80.6982 425.406 81.6381 426.583 80.9426C427.76 80.2458 428.714 78.178 428.714 76.3219C428.714 74.4659 427.76 73.5247 426.583 74.2215Z" fill="#455A64"/>
<path d="M434.255 69.676C433.078 70.3715 432.124 72.4406 432.124 74.2966C432.124 76.1527 433.078 77.0926 434.255 76.3971C435.432 75.7003 436.386 73.6324 436.386 71.7764C436.386 69.9204 435.432 68.9792 434.255 69.676Z" fill="#455A64"/>
<path d="M441.927 65.1306C440.75 65.8274 439.796 67.8952 439.796 69.7512C439.796 71.6073 440.75 72.5472 441.927 71.8517C443.104 71.1561 444.058 69.087 444.058 67.231C444.058 65.375 443.104 64.4338 441.927 65.1306Z" fill="#455A64"/>
<path opacity="0.9" d="M338.8 314.288C338.664 314.199 338.502 314.11 338.329 314.008C337.982 313.793 337.586 313.565 337.165 313.337L337.153 313.324C336.942 313.198 336.732 313.071 336.521 312.957C336.509 312.945 336.485 312.932 336.471 312.932C336.125 312.729 335.79 312.526 335.48 312.348C335.159 312.157 334.873 311.993 334.651 311.867C334.428 311.728 334.254 311.639 334.18 311.601C333.945 311.474 333.722 311.296 333.536 311.068C333.338 310.853 333.164 310.586 333.029 310.283C332.756 309.7 332.595 308.989 332.595 308.241V135.671L337.411 138.562V311.042C337.448 311.803 337.585 312.449 337.807 312.995C337.981 313.388 338.204 313.73 338.501 314.01C338.55 314.086 338.625 314.149 338.711 314.2C338.737 314.238 338.763 314.263 338.8 314.288Z" fill="#37474F"/>
<path d="M346.681 149.061C346.681 148.829 346.745 148.588 346.873 148.339L349.584 142.59C349.63 142.506 349.67 142.45 349.708 142.421C349.745 142.392 349.767 142.375 349.777 142.368C349.857 142.321 349.929 142.325 349.989 142.383C350.048 142.442 350.079 142.536 350.079 142.665V144.597C350.079 144.842 350.06 145.042 350.022 145.193C349.986 145.345 349.922 145.52 349.83 145.72L348.4 148.757L349.83 150.102C349.922 150.192 349.987 150.293 350.022 150.4C350.06 150.509 350.079 150.686 350.079 150.932V152.863C350.079 152.993 350.048 153.124 349.989 153.253C349.929 153.382 349.857 153.471 349.777 153.52C349.767 153.525 349.744 153.535 349.708 153.55C349.67 153.564 349.63 153.556 349.584 153.525L346.873 150.983C346.745 150.885 346.681 150.722 346.681 150.491V149.061Z" fill="#E7424A"/>
<path d="M356.601 134.645C356.648 134.459 356.715 134.27 356.807 134.078C356.898 133.887 357.032 133.74 357.205 133.637L358.223 133.036C358.305 132.987 358.376 132.992 358.437 133.051C358.496 133.11 358.526 133.204 358.526 133.334C358.526 133.392 358.517 133.463 358.499 133.546L353.85 153.849C353.813 154.016 353.748 154.199 353.656 154.398C353.564 154.596 353.427 154.75 353.244 154.859L352.268 155.437C352.186 155.486 352.115 155.481 352.055 155.422C351.995 155.363 351.965 155.268 351.965 155.138C351.965 155.08 351.974 155.01 351.992 154.927L356.601 134.645Z" fill="#E7424A"/>
<path d="M363.796 140.371C363.796 140.603 363.732 140.842 363.604 141.091L360.893 146.839C360.846 146.924 360.806 146.982 360.768 147.01C360.731 147.039 360.708 147.057 360.701 147.062C360.619 147.111 360.548 147.106 360.487 147.047C360.428 146.988 360.399 146.893 360.399 146.762V144.831C360.399 144.584 360.417 144.386 360.452 144.235C360.489 144.083 360.554 143.907 360.644 143.708L362.076 140.67L360.644 139.324C360.554 139.233 360.488 139.134 360.452 139.026C360.416 138.917 360.399 138.74 360.399 138.495V136.562C360.399 136.432 360.428 136.304 360.487 136.174C360.547 136.045 360.619 135.956 360.701 135.907C360.709 135.902 360.733 135.892 360.768 135.878C360.806 135.864 360.846 135.872 360.893 135.901L363.604 138.443C363.732 138.54 363.796 138.705 363.796 138.937V140.371Z" fill="#E7424A"/>
<path d="M371.335 139.036C371.435 138.977 371.522 138.984 371.598 139.055C371.67 139.128 371.708 139.244 371.708 139.402V141.529C371.708 141.689 371.67 141.846 371.598 142.006C371.523 142.166 371.437 142.275 371.335 142.335L370.057 143.092C369.955 143.152 369.868 143.144 369.795 143.073C369.721 143 369.685 142.885 369.685 142.726V140.599C369.685 140.44 369.721 140.281 369.795 140.122C369.867 139.964 369.954 139.853 370.057 139.793L371.335 139.036Z" fill="#E7424A"/>
<path d="M375.615 136.506C375.715 136.446 375.802 136.453 375.877 136.525C375.95 136.597 375.987 136.714 375.987 136.872V138.999C375.987 139.159 375.95 139.316 375.877 139.476C375.803 139.635 375.715 139.744 375.615 139.804L374.334 140.561C374.232 140.622 374.147 140.614 374.073 140.543C374 140.47 373.963 140.355 373.963 140.195V138.069C373.963 137.91 374 137.75 374.073 137.591C374.147 137.432 374.232 137.323 374.334 137.263L375.615 136.506Z" fill="#E7424A"/>
<path d="M379.892 133.976C379.992 133.917 380.079 133.923 380.154 133.994C380.226 134.067 380.264 134.184 380.264 134.342V136.468C380.264 136.629 380.226 136.787 380.154 136.946C380.079 137.105 379.992 137.214 379.892 137.274L378.612 138.031C378.511 138.091 378.424 138.084 378.35 138.012C378.277 137.94 378.24 137.824 378.24 137.665V135.538C378.24 135.38 378.277 135.221 378.35 135.061C378.423 134.903 378.511 134.793 378.612 134.733L379.892 133.976Z" fill="#E7424A"/>
<path d="M347.823 164.566L410.517 127.488C411.258 127.05 411.857 127.361 411.857 128.182C411.857 129.003 411.258 130.024 410.517 130.462L347.823 167.54C347.083 167.977 346.483 167.666 346.483 166.845C346.483 166.024 347.083 165.003 347.823 164.566Z" fill="#E7424A"/>
<path d="M367.938 188.357L430.632 151.279C431.372 150.842 431.972 151.152 431.972 151.973C431.972 152.794 431.372 153.816 430.632 154.253L367.938 191.331C367.197 191.768 366.598 191.458 366.598 190.637C366.598 189.816 367.197 188.796 367.938 188.357Z" fill="#E0E0E0"/>
<path d="M367.937 200.254L397.945 182.521C398.685 182.084 399.285 182.394 399.285 183.215C399.285 184.036 398.685 185.057 397.945 185.495L367.939 203.228C367.198 203.665 366.599 203.355 366.599 202.534C366.598 201.713 367.197 200.692 367.937 200.254Z" fill="#E0E0E0"/>
<path d="M367.937 212.15L397.945 194.416C398.685 193.979 399.285 194.29 399.285 195.111C399.285 195.932 398.685 196.953 397.945 197.39L367.939 215.124C367.198 215.561 366.599 215.25 366.599 214.429C366.598 213.608 367.197 212.588 367.937 212.15Z" fill="#E0E0E0"/>
<path d="M415.712 124.415L440.69 109.588C441.43 109.15 442.03 109.461 442.03 110.282C442.03 111.103 441.43 112.124 440.69 112.562L415.712 127.389C414.972 127.826 414.372 127.515 414.372 126.694C414.371 125.873 414.972 124.853 415.712 124.415Z" fill="#E7424A"/>
<path d="M347.823 295.412L410.517 258.334C411.258 257.896 411.857 258.207 411.857 259.028C411.857 259.849 411.258 260.87 410.517 261.308L347.823 298.386C347.083 298.823 346.483 298.512 346.483 297.691C346.483 296.871 347.083 295.849 347.823 295.412Z" fill="#E7424A"/>
<path d="M415.712 255.261L440.69 240.434C441.43 239.997 442.03 240.307 442.03 241.128C442.03 241.949 441.43 242.97 440.69 243.408L415.712 258.235C414.972 258.672 414.372 258.361 414.372 257.541C414.371 256.72 414.972 255.7 415.712 255.261Z" fill="#E7424A"/>
<path d="M415.712 219.636L440.69 204.809C441.43 204.372 442.03 204.683 442.03 205.504C442.03 206.325 441.43 207.346 440.69 207.783L415.712 222.61C414.972 223.048 414.372 222.737 414.372 221.916C414.371 221.095 414.972 220.075 415.712 219.636Z" fill="#E7424A"/>
<path d="M415.712 231.531L440.69 216.704C441.43 216.267 442.03 216.577 442.03 217.398C442.03 218.219 441.43 219.241 440.69 219.678L415.712 234.505C414.972 234.942 414.372 234.632 414.372 233.811C414.371 232.989 414.972 231.968 415.712 231.531Z" fill="#E7424A"/>
<path d="M347.823 283.529L410.517 246.451C411.258 246.013 411.857 246.324 411.857 247.145C411.857 247.966 411.258 248.987 410.517 249.425L347.823 286.503C347.083 286.94 346.483 286.629 346.483 285.808C346.483 284.987 347.083 283.966 347.823 283.529Z" fill="#F5F5F5"/>
<path d="M394.413 232.198L408.447 223.899C409.188 223.461 409.787 223.772 409.787 224.593C409.787 225.414 409.188 226.435 408.447 226.873L394.414 235.172C393.674 235.609 393.073 235.298 393.073 234.477C393.073 233.655 393.673 232.635 394.413 232.198Z" fill="#E7424A"/>
<path d="M347.823 176.489L384.391 154.847C385.131 154.41 385.73 154.72 385.73 155.541C385.73 156.362 385.131 157.384 384.391 157.821L347.823 179.463C347.083 179.9 346.483 179.59 346.483 178.769C346.483 177.948 347.083 176.926 347.823 176.489Z" fill="#E7424A"/>
<path opacity="0.6" d="M347.823 176.489L384.391 154.847C385.131 154.41 385.73 154.72 385.73 155.541C385.73 156.362 385.131 157.384 384.391 157.821L347.823 179.463C347.083 179.9 346.483 179.59 346.483 178.769C346.483 177.948 347.083 176.926 347.823 176.489Z" fill="white"/>
<path d="M347.823 188.362L360.229 181.017C360.969 180.579 361.568 180.89 361.568 181.711C361.568 182.532 360.969 183.553 360.229 183.991L347.823 191.336C347.083 191.773 346.483 191.462 346.483 190.642C346.483 189.821 347.083 188.801 347.823 188.362Z" fill="#E7424A"/>
<path opacity="0.6" d="M347.823 188.362L360.229 181.017C360.969 180.579 361.568 180.89 361.568 181.711C361.568 182.532 360.969 183.553 360.229 183.991L347.823 191.336C347.083 191.773 346.483 191.462 346.483 190.642C346.483 189.821 347.083 188.801 347.823 188.362Z" fill="white"/>
<path d="M347.823 200.258L360.229 192.913C360.969 192.475 361.568 192.786 361.568 193.607C361.568 194.428 360.969 195.449 360.229 195.887L347.823 203.232C347.083 203.669 346.483 203.358 346.483 202.537C346.483 201.717 347.083 200.696 347.823 200.258Z" fill="#E7424A"/>
<path opacity="0.6" d="M347.823 200.258L360.229 192.913C360.969 192.475 361.568 192.786 361.568 193.607C361.568 194.428 360.969 195.449 360.229 195.887L347.823 203.232C347.083 203.669 346.483 203.358 346.483 202.537C346.483 201.717 347.083 200.696 347.823 200.258Z" fill="white"/>
<path d="M347.823 212.153L360.229 204.808C360.969 204.371 361.568 204.682 361.568 205.503C361.568 206.323 360.969 207.345 360.229 207.782L347.823 215.127C347.083 215.565 346.483 215.254 346.483 214.433C346.483 213.612 347.083 212.592 347.823 212.153Z" fill="#E7424A"/>
<path opacity="0.6" d="M347.823 212.153L360.229 204.808C360.969 204.371 361.568 204.682 361.568 205.503C361.568 206.323 360.969 207.345 360.229 207.782L347.823 215.127C347.083 215.565 346.483 215.254 346.483 214.433C346.483 213.612 347.083 212.592 347.823 212.153Z" fill="white"/>
<path d="M347.823 224.049L360.229 216.704C360.969 216.267 361.568 216.577 361.568 217.398C361.568 218.219 360.969 219.241 360.229 219.678L347.823 227.023C347.083 227.461 346.483 227.15 346.483 226.329C346.483 225.508 347.083 224.488 347.823 224.049Z" fill="#E7424A"/>
<path opacity="0.6" d="M347.823 224.049L360.229 216.704C360.969 216.267 361.568 216.577 361.568 217.398C361.568 218.219 360.969 219.241 360.229 219.678L347.823 227.023C347.083 227.461 346.483 227.15 346.483 226.329C346.483 225.508 347.083 224.488 347.823 224.049Z" fill="white"/>
<path d="M389.585 151.774L405.488 142.4C406.228 141.962 406.827 142.273 406.827 143.094C406.827 143.915 406.227 144.936 405.488 145.374L389.587 154.748C388.846 155.185 388.247 154.874 388.247 154.054C388.246 153.232 388.845 152.211 389.585 151.774Z" fill="#E7424A"/>
<path opacity="0.6" d="M389.585 151.774L405.488 142.4C406.228 141.962 406.827 142.273 406.827 143.094C406.827 143.915 406.227 144.936 405.488 145.374L389.587 154.748C388.846 155.185 388.247 154.874 388.247 154.054C388.246 153.232 388.845 152.211 389.585 151.774Z" fill="white"/>
<path d="M383.025 215.106L419.593 193.464C420.333 193.027 420.933 193.337 420.933 194.158C420.933 194.979 420.333 196.001 419.593 196.438L383.025 218.08C382.285 218.517 381.686 218.207 381.686 217.386C381.684 216.565 382.285 215.545 383.025 215.106Z" fill="#F5F5F5"/>
<path d="M404.122 214.573L440.692 192.931C441.432 192.494 442.031 192.805 442.031 193.626C442.031 194.447 441.432 195.468 440.692 195.905L404.124 217.547C403.383 217.985 402.784 217.674 402.784 216.853C402.783 216.032 403.382 215.011 404.122 214.573Z" fill="#F5F5F5"/>
<path d="M424.788 190.391L440.69 181.017C441.43 180.579 442.03 180.89 442.03 181.711C442.03 182.532 441.43 183.553 440.69 183.991L424.789 193.365C424.049 193.802 423.449 193.491 423.449 192.671C423.448 191.85 424.048 190.828 424.788 190.391Z" fill="#F5F5F5"/>
<path d="M367.938 176.466L404.505 154.824C405.246 154.387 405.845 154.698 405.845 155.519C405.845 156.34 405.246 157.361 404.505 157.798L367.938 179.44C367.197 179.878 366.598 179.567 366.598 178.746C366.598 177.925 367.197 176.905 367.938 176.466Z" fill="#E7424A"/>
<path opacity="0.6" d="M367.938 176.466L404.505 154.824C405.246 154.387 405.845 154.698 405.845 155.519C405.845 156.34 405.246 157.361 404.505 157.798L367.938 179.44C367.197 179.878 366.598 179.567 366.598 178.746C366.598 177.925 367.197 176.905 367.938 176.466Z" fill="white"/>
<path d="M409.701 151.752L425.603 142.377C426.343 141.94 426.942 142.251 426.942 143.072C426.942 143.893 426.343 144.914 425.603 145.351L409.701 154.725C408.961 155.163 408.362 154.852 408.362 154.031C408.36 153.21 408.96 152.189 409.701 151.752Z" fill="#E7424A"/>
<path opacity="0.6" d="M409.701 151.752L425.603 142.377C426.343 141.94 426.942 142.251 426.942 143.072C426.942 143.893 426.343 144.914 425.603 145.351L409.701 154.725C408.961 155.163 408.362 154.852 408.362 154.031C408.36 153.21 408.96 152.189 409.701 151.752Z" fill="white"/>
<path d="M526.485 68.7246V54.4553L514.726 53.4051C514.543 53.3888 514.378 53.4289 514.238 53.5066C513.783 53.7623 502.65 60.2866 502.504 60.3755C502.07 60.6425 501.912 61.2904 502.313 61.734L514.78 75.5772L526.485 68.7246Z" fill="#E7424A"/>
<path d="M514.779 75.5775L502.312 61.7343C501.779 61.1415 502.236 60.1878 503.02 60.2567L514.78 61.3069L514.779 75.5775Z" fill="#E7424A"/>
<path d="M526.48 54.4506L514.779 61.3133L503.018 60.258C502.87 60.248 502.73 60.2681 502.612 60.3194C503.553 59.7517 513.808 53.7412 514.235 53.5069C514.373 53.4254 514.542 53.3853 514.73 53.4054L526.48 54.4506Z" fill="#E7424A"/>
<path opacity="0.5" d="M526.48 54.4506L514.779 61.3133L503.018 60.258C502.87 60.248 502.73 60.2681 502.612 60.3194C503.553 59.7517 513.808 53.7412 514.235 53.5069C514.373 53.4254 514.542 53.3853 514.73 53.4054L526.48 54.4506Z" fill="white"/>
<path d="M514.802 45.2092C514.802 42.4396 516.7 39.0734 519.042 37.6886L522.493 35.6471C524.833 34.2623 528.63 34.2623 530.971 35.6471L567.761 57.4069C570.102 58.7918 572 62.1579 572 64.9276V108.462C572 111.232 570.101 114.598 567.761 115.983L564.309 118.024C561.968 119.409 558.172 119.409 555.831 118.024L544.97 111.602L530.853 103.248L519.042 96.2659C516.7 94.8823 514.802 91.5149 514.802 88.7452V45.2092Z" fill="#E7424A"/>
<path opacity="0.2" d="M571.999 108.461C571.999 111.231 570.1 114.597 567.759 115.982L564.308 118.023C562.192 119.275 558.899 119.384 556.555 118.373C558.551 119.146 560.069 117.993 560.069 115.515V71.9807C560.069 70.5959 559.594 69.0619 558.827 67.7009L570.757 60.6465C571.524 62.0075 571.999 63.5415 571.999 64.9263V108.461Z" fill="black"/>
<path opacity="0.5" d="M514.941 43.9748C515.435 42.1313 517.077 41.5435 519.034 42.699L555.832 64.4651C556.998 65.1532 558.066 66.3287 558.819 67.706L570.744 60.6566C569.973 59.2793 568.924 58.1037 567.758 57.4145L530.98 35.6483C528.627 34.271 524.83 34.271 522.495 35.6483L519.034 37.6949C517.036 38.8704 515.355 41.5034 514.941 43.9748Z" fill="white"/>
<path d="M537.433 61.1051L523.424 59.1062L525.382 85.5745L537.433 101.61V61.1051Z" fill="#455A64"/>
<path d="M537.432 61.1052L551.441 75.6753L549.482 99.8288L537.432 101.611V61.1052Z" fill="#37474F"/>
<path d="M543.203 95.5627L546.411 97.4601L537.462 65.1455L528.512 86.874L531.72 88.7714L533.652 84.0605L541.27 88.5659L543.203 95.5627ZM534.817 81.2232L537.462 74.7728L540.107 84.3513L534.817 81.2232Z" fill="#FAFAFA"/>
<path d="M526.485 149.988V135.718L514.726 134.667C514.543 134.651 514.378 134.691 514.238 134.769C513.783 135.025 502.65 141.549 502.504 141.638C502.07 141.905 501.912 142.553 502.313 142.998L514.78 156.841L526.485 149.988Z" fill="#E7424A"/>
<path d="M514.779 156.842L502.312 142.999C501.779 142.406 502.236 141.452 503.02 141.521L514.78 142.572L514.779 156.842Z" fill="#EBEBEB"/>
<path d="M526.48 135.714L514.779 142.576L503.018 141.521C502.87 141.511 502.73 141.531 502.612 141.582C503.553 141.015 513.808 135.004 514.235 134.771C514.373 134.69 514.542 134.65 514.73 134.67L526.48 135.714Z" fill="#E7424A"/>
<path d="M526.48 135.714L514.779 142.576L503.018 141.521C502.87 141.511 502.73 141.531 502.612 141.582C503.553 141.015 513.808 135.004 514.235 134.771C514.373 134.69 514.542 134.65 514.73 134.67L526.48 135.714Z" fill="#F5F5F5"/>
<path d="M514.802 126.473C514.802 123.703 516.7 120.337 519.042 118.952L522.493 116.91C524.833 115.526 528.63 115.526 530.971 116.91L567.761 138.67C570.102 140.055 572 143.421 572 146.191V189.726C572 192.495 570.101 195.862 567.761 197.246L564.309 199.288C561.968 200.673 558.172 200.673 555.831 199.288L544.97 192.865L530.853 184.511L519.042 177.529C516.7 176.146 514.802 172.778 514.802 170.009V126.473Z" fill="#EBEBEB"/>
<path d="M571.999 189.725C571.999 192.494 570.1 195.86 567.759 197.245L564.308 199.287C562.192 200.539 558.899 200.646 556.555 199.636C558.551 200.41 560.069 199.257 560.069 196.779V153.244C560.069 151.859 559.594 150.325 558.827 148.964L570.757 141.91C571.524 143.271 571.999 144.805 571.999 146.19V189.725Z" fill="#E0E0E0"/>
<path d="M514.941 125.238C515.435 123.395 517.077 122.807 519.034 123.962L555.832 145.728C556.998 146.416 558.066 147.592 558.819 148.969L570.744 141.92C569.973 140.543 568.924 139.367 567.758 138.678L530.98 116.912C528.627 115.534 524.83 115.534 522.495 116.912L519.034 118.958C517.036 120.134 515.355 122.767 514.941 125.238Z" fill="#F5F5F5"/>
<path d="M537.433 153.089L540.524 147.131L551.441 153.588L537.433 180.58L523.424 137.019L534.341 143.475L537.433 153.089Z" fill="#E7424A"/>
<path opacity="0.15" d="M537.433 153.089L540.524 147.131L551.441 153.588L537.433 180.58L523.424 137.019L534.341 143.475L537.433 153.089Z" fill="black"/>
<path d="M537.433 153.089L534.341 143.475L529.474 140.597C533.379 152.742 537.433 165.345 537.433 165.345L545.391 150.011L540.524 147.132L537.433 153.089Z" fill="#37474F"/>
<path d="M526.485 231.253V216.983L514.726 215.933C514.543 215.917 514.378 215.957 514.238 216.035C513.783 216.29 502.65 222.815 502.504 222.904C502.07 223.171 501.912 223.818 502.313 224.262L514.78 238.105L526.485 231.253Z" fill="#E7424A"/>
<path d="M514.779 238.105L502.312 224.262C501.779 223.669 502.236 222.716 503.02 222.785L514.78 223.835L514.779 238.105Z" fill="#37474F"/>
<path d="M526.48 216.977L514.779 223.84L503.018 222.785C502.87 222.775 502.73 222.795 502.612 222.846C503.553 222.278 513.808 216.268 514.235 216.033C514.373 215.952 514.542 215.912 514.73 215.932L526.48 216.977Z" fill="#E7424A"/>
<path d="M526.48 216.977L514.779 223.84L503.018 222.785C502.87 222.775 502.73 222.795 502.612 222.846C503.553 222.278 513.808 216.268 514.235 216.033C514.373 215.952 514.542 215.912 514.73 215.932L526.48 216.977Z" fill="#455A64"/>
<path d="M514.802 207.736C514.802 204.966 516.7 201.6 519.042 200.215L522.493 198.174C524.833 196.789 528.63 196.789 530.971 198.174L567.761 219.932C570.102 221.317 572 224.685 572 227.453V270.986C572 273.756 570.101 277.124 567.761 278.507L564.309 280.549C561.968 281.933 558.172 281.933 555.831 280.549L544.97 274.126L530.853 265.771L519.042 258.789C516.7 257.405 514.802 254.038 514.802 251.268V207.736Z" fill="#37474F"/>
<path d="M571.999 270.988C571.999 273.757 570.1 277.123 567.759 278.508L564.308 280.55C562.192 281.802 558.899 281.911 556.555 280.899C558.551 281.673 560.069 280.52 560.069 278.042V234.507C560.069 233.123 559.594 231.589 558.827 230.228L570.757 223.173C571.524 224.534 571.999 226.068 571.999 227.453V270.988Z" fill="#263238"/>
<path d="M514.941 206.501C515.435 204.658 517.077 204.07 519.034 205.226L555.832 226.992C556.998 227.68 558.066 228.855 558.819 230.233L570.744 223.183C569.973 221.806 568.924 220.63 567.758 219.942L530.98 198.176C528.627 196.799 524.83 196.799 522.495 198.176L519.034 200.223C517.036 201.397 515.355 204.03 514.941 206.501Z" fill="#455A64"/>
<path d="M545.627 240.988C546.496 236.483 546.135 232.332 544.398 229.977C543.523 228.79 542.38 228.171 541.075 228.171C540.973 228.171 540.872 228.175 540.77 228.182C539.721 228.258 538.621 228.71 537.523 229.488C535.041 224.756 532.61 221.839 530.876 221.839C530.793 221.839 530.71 221.846 530.628 221.86C530.175 221.938 529.802 222.225 529.517 222.715C528.679 224.149 528.631 227.266 529.267 231.369C527.344 230.996 525.746 231.074 524.688 231.701C523.759 232.25 523.269 233.197 523.269 234.436C523.269 237.155 525.608 240.893 529.238 244.453C528.369 248.958 528.729 253.11 530.466 255.465C530.869 256.012 531.331 256.443 531.843 256.745C532.439 257.098 533.088 257.274 533.783 257.274C534.199 257.274 534.632 257.211 535.08 257.083C535.85 256.865 536.633 256.444 537.413 255.88C539.387 259.66 541.346 262.367 542.928 263.303C543.353 263.554 543.748 263.679 544.11 263.679C544.196 263.679 544.279 263.671 544.362 263.656C544.815 263.579 545.188 263.292 545.473 262.802C546.314 261.362 546.359 258.231 545.717 254.109C546.414 254.24 547.071 254.314 547.667 254.314C548.673 254.314 549.523 254.126 550.174 253.74C551.104 253.189 551.594 252.243 551.594 251.004C551.595 248.285 549.256 244.55 545.627 240.988ZM541.43 248.249C541.001 249.041 540.546 249.76 540.08 250.444C539.269 250.045 538.415 249.589 537.51 249.054C536.607 248.52 535.742 247.96 534.911 247.384C534.434 246.125 533.963 244.804 533.509 243.425C533.061 242.068 532.666 240.769 532.313 239.522C532.649 238.745 533.018 237.966 533.436 237.197C533.864 236.406 534.314 235.683 534.774 235.004C535.59 235.403 536.443 235.855 537.354 236.394C538.305 236.956 539.216 237.545 540.085 238.153C540.556 239.401 541.023 240.713 541.48 242.097C541.901 243.373 542.279 244.601 542.616 245.779C542.265 246.602 541.873 247.429 541.43 248.249ZM542.63 241.845C542.356 241.015 542.076 240.206 541.791 239.41C542.612 240.047 543.385 240.693 544.104 241.344C543.89 242.211 543.626 243.097 543.31 243.994C543.094 243.285 542.87 242.571 542.63 241.845ZM537.51 234.777C536.888 234.41 536.279 234.078 535.676 233.764C536.246 233.042 536.829 232.413 537.417 231.883C537.993 233.076 538.578 234.391 539.161 235.811C538.621 235.456 538.07 235.109 537.51 234.777ZM532.309 235.882C532.086 236.293 531.877 236.711 531.675 237.13C531.346 235.822 531.067 234.585 530.847 233.438C531.581 233.651 532.377 233.933 533.239 234.297C532.921 234.801 532.609 235.327 532.309 235.882ZM532.361 243.672C532.639 244.513 532.927 245.335 533.219 246.147C532.342 245.474 531.522 244.789 530.76 244.1C530.987 243.179 531.268 242.237 531.61 241.284C531.848 242.071 532.095 242.865 532.361 243.672ZM537.354 250.667C537.972 251.031 538.578 251.361 539.176 251.674C538.632 252.36 538.077 252.979 537.517 253.494C536.96 252.335 536.399 251.08 535.841 249.728C536.339 250.049 536.843 250.363 537.354 250.667ZM542.555 249.561C542.804 249.103 543.039 248.636 543.261 248.168C543.612 249.545 543.906 250.845 544.138 252.045C543.37 251.827 542.532 251.535 541.621 251.15C541.941 250.644 542.253 250.119 542.555 249.561ZM540.893 237.008C540.064 234.871 539.208 232.898 538.349 231.127C539.037 230.635 539.723 230.269 540.393 230.078C540.757 229.974 541.11 229.923 541.444 229.923C541.959 229.923 542.43 230.045 542.84 230.287C543.155 230.472 543.435 230.73 543.672 231.052C544.842 232.639 545.154 235.96 544.426 239.856C543.335 238.874 542.148 237.917 540.893 237.008ZM534.118 233.01C532.851 232.43 531.652 231.983 530.536 231.671C529.924 227.788 529.999 225.116 530.607 224.074C530.76 223.811 530.946 223.661 531.158 223.623C531.194 223.617 531.231 223.614 531.27 223.614C531.461 223.614 531.682 223.688 531.933 223.836C533.094 224.523 534.769 226.757 536.593 230.241C535.748 230.986 534.916 231.916 534.118 233.01ZM530.91 238.857C530.355 240.221 529.904 241.604 529.563 242.97C526.422 239.866 524.557 236.855 524.557 235.016C524.557 234.268 524.87 233.703 525.489 233.338C525.955 233.061 526.652 232.891 527.567 232.891C528.144 232.891 528.817 232.966 529.567 233.118C529.905 234.896 530.355 236.825 530.91 238.857ZM534.115 248.54C534.917 250.594 535.754 252.516 536.599 254.26C535.589 255.007 534.588 255.444 533.661 255.512C532.644 255.594 531.79 255.198 531.192 254.39C530.021 252.802 529.709 249.481 530.438 245.583C531.571 246.606 532.807 247.599 534.115 248.54ZM540.747 252.441C542.057 253.041 543.304 253.508 544.452 253.82C545.068 257.719 544.994 260.399 544.384 261.443C544.231 261.706 544.045 261.857 543.833 261.894C542.725 262.095 540.631 259.555 538.337 255.137C539.16 254.401 539.971 253.504 540.747 252.441ZM544.016 246.426C544.542 245.114 544.974 243.786 545.301 242.473C548.443 245.576 550.306 248.589 550.306 250.426C550.306 251.174 549.993 251.739 549.374 252.104C548.628 252.548 547.295 252.712 545.414 252.351C545.067 250.519 544.596 248.526 544.016 246.426Z" fill="#E7424A"/>
<path d="M539.919 244.192C539.919 246.069 538.805 246.931 537.431 246.119C536.059 245.307 534.944 243.127 534.944 241.252C534.944 239.378 536.057 238.514 537.431 239.326C538.805 240.137 539.919 242.316 539.919 244.192Z" fill="#E7424A"/>
<g opacity="0.65">
<path d="M545.627 240.988C546.496 236.483 546.135 232.332 544.398 229.977C543.523 228.79 542.38 228.171 541.075 228.171C540.973 228.171 540.872 228.175 540.77 228.182C539.721 228.258 538.621 228.71 537.523 229.488C535.041 224.756 532.61 221.839 530.876 221.839C530.793 221.839 530.71 221.846 530.628 221.86C530.175 221.938 529.802 222.225 529.517 222.715C528.679 224.149 528.631 227.266 529.267 231.369C527.344 230.996 525.746 231.074 524.688 231.701C523.759 232.25 523.269 233.197 523.269 234.436C523.269 237.155 525.608 240.893 529.238 244.453C528.369 248.958 528.729 253.11 530.466 255.465C530.869 256.012 531.331 256.443 531.843 256.745C532.439 257.098 533.088 257.274 533.783 257.274C534.199 257.274 534.632 257.211 535.08 257.083C535.85 256.865 536.633 256.444 537.413 255.88C539.387 259.66 541.346 262.367 542.928 263.303C543.353 263.554 543.748 263.679 544.11 263.679C544.196 263.679 544.279 263.671 544.362 263.656C544.815 263.579 545.188 263.292 545.473 262.802C546.314 261.362 546.359 258.231 545.717 254.109C546.414 254.24 547.071 254.314 547.667 254.314C548.673 254.314 549.523 254.126 550.174 253.74C551.104 253.189 551.594 252.243 551.594 251.004C551.595 248.285 549.256 244.55 545.627 240.988ZM541.43 248.249C541.001 249.041 540.546 249.76 540.08 250.444C539.269 250.045 538.415 249.589 537.51 249.054C536.607 248.52 535.742 247.96 534.911 247.384C534.434 246.125 533.963 244.804 533.509 243.425C533.061 242.068 532.666 240.769 532.313 239.522C532.649 238.745 533.018 237.966 533.436 237.197C533.864 236.406 534.314 235.683 534.774 235.004C535.59 235.403 536.443 235.855 537.354 236.394C538.305 236.956 539.216 237.545 540.085 238.153C540.556 239.401 541.023 240.713 541.48 242.097C541.901 243.373 542.279 244.601 542.616 245.779C542.265 246.602 541.873 247.429 541.43 248.249ZM542.63 241.845C542.356 241.015 542.076 240.206 541.791 239.41C542.612 240.047 543.385 240.693 544.104 241.344C543.89 242.211 543.626 243.097 543.31 243.994C543.094 243.285 542.87 242.571 542.63 241.845ZM537.51 234.777C536.888 234.41 536.279 234.078 535.676 233.764C536.246 233.042 536.829 232.413 537.417 231.883C537.993 233.076 538.578 234.391 539.161 235.811C538.621 235.456 538.07 235.109 537.51 234.777ZM532.309 235.882C532.086 236.293 531.877 236.711 531.675 237.13C531.346 235.822 531.067 234.585 530.847 233.438C531.581 233.651 532.377 233.933 533.239 234.297C532.921 234.801 532.609 235.327 532.309 235.882ZM532.361 243.672C532.639 244.513 532.927 245.335 533.219 246.147C532.342 245.474 531.522 244.789 530.76 244.1C530.987 243.179 531.268 242.237 531.61 241.284C531.848 242.071 532.095 242.865 532.361 243.672ZM537.354 250.667C537.972 251.031 538.578 251.361 539.176 251.674C538.632 252.36 538.077 252.979 537.517 253.494C536.96 252.335 536.399 251.08 535.841 249.728C536.339 250.049 536.843 250.363 537.354 250.667ZM542.555 249.561C542.804 249.103 543.039 248.636 543.261 248.168C543.612 249.545 543.906 250.845 544.138 252.045C543.37 251.827 542.532 251.535 541.621 251.15C541.941 250.644 542.253 250.119 542.555 249.561ZM540.893 237.008C540.064 234.871 539.208 232.898 538.349 231.127C539.037 230.635 539.723 230.269 540.393 230.078C540.757 229.974 541.11 229.923 541.444 229.923C541.959 229.923 542.43 230.045 542.84 230.287C543.155 230.472 543.435 230.73 543.672 231.052C544.842 232.639 545.154 235.96 544.426 239.856C543.335 238.874 542.148 237.917 540.893 237.008ZM534.118 233.01C532.851 232.43 531.652 231.983 530.536 231.671C529.924 227.788 529.999 225.116 530.607 224.074C530.76 223.811 530.946 223.661 531.158 223.623C531.194 223.617 531.231 223.614 531.27 223.614C531.461 223.614 531.682 223.688 531.933 223.836C533.094 224.523 534.769 226.757 536.593 230.241C535.748 230.986 534.916 231.916 534.118 233.01ZM530.91 238.857C530.355 240.221 529.904 241.604 529.563 242.97C526.422 239.866 524.557 236.855 524.557 235.016C524.557 234.268 524.87 233.703 525.489 233.338C525.955 233.061 526.652 232.891 527.567 232.891C528.144 232.891 528.817 232.966 529.567 233.118C529.905 234.896 530.355 236.825 530.91 238.857ZM534.115 248.54C534.917 250.594 535.754 252.516 536.599 254.26C535.589 255.007 534.588 255.444 533.661 255.512C532.644 255.594 531.79 255.198 531.192 254.39C530.021 252.802 529.709 249.481 530.438 245.583C531.571 246.606 532.807 247.599 534.115 248.54ZM540.747 252.441C542.057 253.041 543.304 253.508 544.452 253.82C545.068 257.719 544.994 260.399 544.384 261.443C544.231 261.706 544.045 261.857 543.833 261.894C542.725 262.095 540.631 259.555 538.337 255.137C539.16 254.401 539.971 253.504 540.747 252.441ZM544.016 246.426C544.542 245.114 544.974 243.786 545.301 242.473C548.443 245.576 550.306 248.589 550.306 250.426C550.306 251.174 549.993 251.739 549.374 252.104C548.628 252.548 547.295 252.712 545.414 252.351C545.067 250.519 544.596 248.526 544.016 246.426Z" fill="white"/>
<path d="M539.919 244.192C539.919 246.069 538.805 246.931 537.431 246.119C536.059 245.307 534.944 243.127 534.944 241.252C534.944 239.378 536.057 238.514 537.431 239.326C538.805 240.137 539.919 242.316 539.919 244.192Z" fill="white"/>
</g>
<path d="M487.218 292.785C492 293.738 494.178 295.406 496.898 302.199C499.618 308.993 504.465 325.541 505.596 330.08C506.102 332.114 493.534 350.312 494.073 350.043C494.238 349.96 489.166 341.266 489.166 341.266L495.333 329.178L490.942 318.184L487.218 292.785Z" fill="#FFA8A7"/>
<path d="M485.597 292.892C485.597 292.892 489.961 292.091 492.847 294.549C495.733 297.006 496.175 298.638 498.124 303.686C500.073 308.734 503.285 319.217 503.285 319.217C503.285 319.217 502.362 324.863 493.394 325.971L485.706 308.236C485.706 308.236 483.03 297.514 485.597 292.892Z" fill="#E7424A"/>
<path d="M476.59 438.398C476.468 439.99 476.268 441.421 476.872 443.171C477.737 445.684 479.567 446.835 480.641 447.826C481.715 448.817 482.912 450.282 483.772 451.714C484.536 452.986 485.404 454.446 487.04 455.897C488.061 456.803 490.934 456.884 492.319 456.288C493.705 455.691 494.169 455.157 494.083 452.89C494 450.676 487.289 449.851 487.289 449.851L476.59 438.398Z" fill="#455A64"/>
<path d="M493.217 446.13C493.789 446.352 493.934 447.469 494.021 449.69C494.087 451.37 494.775 453.829 492.517 454.888C490.695 455.743 487.782 455.175 486.55 453.591C485.014 451.614 483.975 449.875 481.782 447.463C479.88 445.371 477.899 444.665 477.054 440.485C476.511 437.796 476.938 436.684 478.703 435.913C481.132 434.853 484.946 438.316 486.849 438.862C488.487 439.33 492.644 445.907 493.217 446.13Z" fill="#E7424A"/>
<path opacity="0.2" d="M493.217 446.13C493.789 446.352 493.934 447.469 494.021 449.69C494.087 451.37 494.775 453.829 492.517 454.888C490.695 455.743 487.782 455.175 486.55 453.591C485.014 451.614 483.975 449.875 481.782 447.463C479.88 445.371 477.899 444.665 477.054 440.485C476.511 437.796 476.938 436.684 478.703 435.913C481.132 434.853 484.946 438.316 486.849 438.862C488.487 439.33 492.644 445.907 493.217 446.13Z" fill="black"/>
<path d="M486.849 438.861C486.747 438.832 486.638 438.79 486.526 438.745C483.022 439.057 481.621 441.53 481.269 442.277C480.944 443.009 481.943 443.578 482.536 443.009C483.893 440.247 486.679 439.635 487.788 439.498C487.431 439.171 487.107 438.934 486.849 438.861Z" fill="#FAFAFA"/>
<path d="M488.418 440.126C485.181 440.571 483.874 442.907 483.534 443.628C483.21 444.36 484.209 444.928 484.803 444.36C485.879 442.17 487.857 441.33 489.184 441.008C488.924 440.694 488.666 440.393 488.418 440.126Z" fill="#FAFAFA"/>
<path d="M446.073 472.749C445.703 474.631 446.367 475.613 448.738 477.015C451.109 478.417 454.83 478.899 458.744 477.732C462.657 476.565 464.528 474.816 466.155 474.4C467.782 473.984 471.806 473.947 473.414 473.465C475.022 472.982 474.997 472.138 474.989 470.159L446.073 472.749Z" fill="#455A64"/>
<path d="M473.414 460.615C473.414 460.615 474.177 462.986 474.59 465.059C474.916 466.707 475.385 469.462 474.822 470.701C474.258 471.941 472.061 472.742 468.654 472.714C466.446 472.696 463.007 474.232 460.653 475.578C458.221 476.968 455.583 476.973 453.01 476.663C449.979 476.298 446.838 474.497 446.349 473.212C445.859 471.926 445.732 470.961 452.876 467.843C452.941 467.814 461.166 464.706 464.622 460.798L473.414 460.615Z" fill="#E7424A"/>
<g opacity="0.2">
<path d="M473.414 460.615C473.414 460.615 474.177 462.986 474.59 465.059C474.916 466.707 475.385 469.462 474.822 470.701C474.258 471.941 472.061 472.742 468.654 472.714C466.446 472.696 463.007 474.232 460.653 475.578C458.221 476.968 455.583 476.973 453.01 476.663C449.979 476.298 446.838 474.497 446.349 473.212C445.859 471.926 445.732 470.961 452.876 467.843C452.941 467.814 461.166 464.706 464.622 460.798L473.414 460.615Z" fill="black"/>
</g>
<path d="M459.678 476.059C459.678 476.059 459.067 469.775 454.08 467.978C449.573 466.354 445.637 469.775 446.075 472.749C446.37 474.75 451.857 479.293 459.678 476.059Z" fill="#FAFAFA"/>
<path d="M455.341 466.801C455.341 466.801 456.949 466.801 458.745 468.349C460.182 469.589 460.224 470.412 460.224 470.412C460.552 470.928 461.609 470.645 461.525 469.775C461.525 469.775 461.191 466.606 457.118 465.957C457.118 465.957 455.998 465.671 455.341 466.801Z" fill="#FAFAFA"/>
<path d="M458.193 465.403C458.193 465.403 459.832 465.252 461.63 466.801C463.067 468.041 463.076 469.015 463.076 469.015C463.404 469.53 464.461 469.248 464.376 468.378C464.376 468.378 464.041 465.208 459.97 464.559C459.97 464.559 458.85 464.274 458.193 465.403Z" fill="#FAFAFA"/>
<path d="M461.023 463.748C461.023 463.748 462.649 463.484 464.544 464.904C466.061 466.039 466.134 467.011 466.134 467.011C466.497 467.502 467.532 467.146 467.39 466.284C467.39 466.284 466.844 463.146 462.739 462.782C462.739 462.782 461.603 462.575 461.023 463.748Z" fill="#FAFAFA"/>
<path d="M493.217 442.537V446.8C493.217 446.8 490.449 448.978 486.493 446.986C486.377 446.723 486.039 442.537 486.039 442.537H493.217Z" fill="#FFA8A7"/>
<path d="M473.414 457.669C473.414 457.669 473.404 459.692 473.414 460.848C473.424 462.004 472.092 463.727 468.641 463.6C466.218 463.512 464.526 462.845 464.622 460.8V457.852L473.414 457.669Z" fill="#FFA8A7"/>
<path d="M497.704 406.367C497.479 397.376 495.675 393.431 495.675 393.431C495.675 393.431 496.346 382.326 497.806 368.73C500.027 348.03 499.005 344.017 495.018 334.704C495.018 334.704 461.002 331.173 459.965 345.653C458.673 363.685 458.518 400.366 458.986 406.736C459.453 413.106 459.447 407.22 460.957 420.115C462.152 430.315 464.622 457.852 464.622 457.852C469.137 460.352 473.414 457.668 473.414 457.668C473.414 457.668 476.195 423.971 475.904 416.621C475.548 407.645 475.051 405.36 475.051 405.36C475.051 405.36 479.028 376.304 479.644 371.626C479.644 371.626 480.198 379.997 480.665 386.369C481.133 392.739 481.094 397.87 482.404 411.047C483.432 421.383 485.921 443.697 485.921 443.697C489.943 445.436 493.339 443.136 493.339 443.136C493.339 443.136 497.887 413.642 497.704 406.367Z" fill="#455A64"/>
<path d="M478.168 443.578C478.168 443.578 478.359 438.601 484.926 437.909L485.302 438.127C485.302 438.127 484.256 436.176 482.072 435.572C479.889 434.969 478.165 435.547 477.018 437.06C475.872 438.572 477.034 442.608 478.168 443.578Z" fill="#FAFAFA"/>
<path d="M469.796 288.097L471.394 301.562L482.95 300.493L481.63 285.548L469.796 288.097Z" fill="#FFA8A7"/>
<path d="M494.22 299.298C492.95 295.757 490.04 292.046 485.597 292.892C484.44 293.112 483.423 293.285 482.333 293.509C482.233 296.611 476.528 298.217 470.839 296.336C469.128 296.838 467.563 297.348 466.142 297.868C462.075 299.356 460.439 306.277 460.35 317.856C460.261 329.433 458.671 352.681 458.671 352.681C458.671 352.681 467.223 357.332 483.231 354.36C499.239 351.387 498.957 345.816 498.957 345.816C498.957 345.816 498.637 339.023 491.423 327.617C497.55 310.926 496.105 304.554 494.22 299.298Z" fill="#37474F"/>
<path d="M461.209 270.994C461.209 270.994 458.788 266.281 462.079 260.986C465.958 254.746 473.437 253.682 482.299 256.116C486.691 257.322 492.834 262.104 493.385 270.735C493.809 277.392 475.684 282.302 476.097 286.862L461.209 270.994Z" fill="#263238"/>
<path d="M460.819 273.523C460.819 273.523 458.359 277.563 458.704 277.974C459.049 278.385 460.691 278.788 460.691 278.788L460.819 273.523Z" fill="#F28F8F"/>
<path d="M468.321 260.729C465.863 262.116 461.621 264.673 460.761 274.106C459.879 283.789 462.064 287.085 463.383 288.316C464.272 289.146 468.755 289.332 471.07 288.525C473.966 287.515 480.208 284.139 483.044 279.075C486.379 273.117 486.894 265.285 482.786 262.334C477.004 258.178 470.401 259.553 468.321 260.729Z" fill="#FFA8A7"/>
<path d="M468.443 272.126C468.443 272.126 463.373 270.533 462.445 264.388C461.516 258.244 469.008 255.643 469.008 255.643L468.443 272.126Z" fill="#263238"/>
<path d="M467.595 261.151C467.595 261.151 465.655 270.017 468.404 275.509C468.404 275.509 469.837 272.032 472.746 272.938C475.675 273.85 475.514 277.822 473.283 279.912C471.052 282.001 468.808 281.015 468.808 281.015C468.808 281.015 470.138 284.751 473.131 287.702C473.131 287.702 481.746 291.636 489.204 283.013C495.972 275.187 494.714 261.54 484.348 258.32C473.984 255.101 467.595 261.151 467.595 261.151Z" fill="#263238"/>
<path d="M503.285 295.888C496.788 295.888 491.521 290.493 491.521 283.838V263.662C498.018 263.662 503.285 269.058 503.285 275.711V295.888Z" fill="#263238"/>
<path d="M492.834 261.047C491.766 261.399 491.179 262.57 491.521 263.664L495.388 262.391C495.046 261.296 493.902 260.695 492.834 261.047Z" fill="#263238"/>
<path d="M436.896 319.195C435.219 317.232 434.941 312.896 432.705 309.913C430.522 306.999 430.877 303.924 429.475 305.262C427.975 306.694 429.12 311.491 429.12 311.491C429.12 311.491 426.518 316.436 426.298 318.968C426.077 321.499 432.616 327.856 432.616 327.856L436.896 319.195Z" fill="#FFA8A7"/>
<path d="M429.475 311.151C429.475 311.151 426.827 314.944 414.9 309.991C411.606 308.622 413.829 315.877 417.869 318.882C421.608 321.663 426.289 322.524 430.03 325.121C430.04 324.751 429.475 311.151 429.475 311.151Z" fill="#FFA8A7"/>
<path d="M467.154 297.511C463.756 298.722 460.783 300.124 457.612 306.227C453.538 314.07 446.129 329.433 446.129 329.433L436.896 319.194C436.896 319.194 435.552 317.254 433.053 321.484C430.554 325.715 431.659 326.884 431.659 326.884C431.659 326.884 442.401 341.623 444.373 343.498C446.345 345.374 449.584 343.916 451.696 340.966C453.809 338.015 464.741 317.737 464.741 317.737C464.741 317.737 471.954 304.926 467.154 297.511Z" fill="#FFA8A7"/>
<path d="M468.802 296.96C467.956 297.238 462.102 297.237 458.446 304.013C454.387 311.537 450.108 320.028 450.108 320.028C450.108 320.028 453.05 327.3 460.557 327.856C460.57 327.106 466.702 315.956 469.008 311.176C471.316 306.398 471.096 299.108 468.802 296.96Z" fill="#E7424A"/>
<path d="M479.644 371.627L480.287 364.584C480.287 364.584 485.281 364.09 490.663 360.562C490.663 360.562 488.455 364.189 482.39 365.841L481.021 372.702L480.664 386.37L479.644 371.627Z" fill="#37474F"/>
<defs>
<filter id="filter0_f_0_1" x="-18" y="39" width="613" height="638" filterUnits="userSpaceOnUse" color-interpolation-filters="sRGB">
<feFlood flood-opacity="0" result="BackgroundImageFix"/>
<feBlend mode="normal" in="SourceGraphic" in2="BackgroundImageFix" result="shape"/>
<feGaussianBlur stdDeviation="50" result="effect1_foregroundBlur_0_1"/>
</filter>
<linearGradient id="paint0_linear_0_1" x1="288.5" y1="139" x2="288.5" y2="577" gradientUnits="userSpaceOnUse">
<stop stop-color="#FE5D26"/>
<stop offset="1" stop-color="#983817"/>
</linearGradient>
</defs>
</svg>
