<svg width="16" height="20" viewBox="0 0 16 20" fill="none" xmlns="http://www.w3.org/2000/svg">
<path d="M0.749896 0.999597L0.749896 18.9996C0.750467 19.1818 0.800731 19.3605 0.895274 19.5163C0.989818 19.6721 1.12506 19.7991 1.28645 19.8838C1.44784 19.9684 1.62926 20.0075 1.81118 19.9967C1.9931 19.9859 2.16864 19.9257 2.3189 19.8226L15.3189 10.8226C15.8579 10.4496 15.8579 9.5516 15.3189 9.1776L2.3189 0.177597C2.16895 0.073422 1.99333 0.0123313 1.8111 0.000962362C1.62887 -0.0104066 1.44702 0.0283811 1.28529 0.113111C1.12356 0.197841 0.988142 0.325273 0.893752 0.481561C0.799362 0.63785 0.749608 0.817017 0.749896 0.999597Z" fill="#86868B"/>
</svg>
